<svg width="653" height="610" viewBox="0 0 653 610" fill="none" xmlns="http://www.w3.org/2000/svg">
<g clip-path="url(#clip0_6_26)">
<path fill-rule="evenodd" clip-rule="evenodd" d="M299.945 1.78653C361.766 1.98038 428.275 -7.80833 480.054 25.4519C531.741 58.6519 545.841 124.141 574.343 178.042C604.595 235.253 659.401 287.224 652.387 351.356C645.349 415.713 585.71 459.975 538.576 505.088C494.951 546.842 448.574 587.376 389.767 602.714C331.795 617.835 271.213 607.418 213.989 589.749C157.564 572.327 102.833 546.71 64.5734 502.306C26.5249 458.146 8.77346 401.171 1.94406 343.649C-4.75828 287.196 6.49384 231.748 26.105 178.293C47.1356 120.969 67.3111 57.6988 119.096 24.3201C170.989 -9.12817 237.926 1.59206 299.945 1.78653Z" fill="#85A0FF"/>
</g>
<defs>
<clipPath id="clip0_6_26">
<rect width="653" height="610" fill="white"/>
</clipPath>
</defs>
</svg>
