<svg width="503" height="445" viewBox="0 0 503 445" fill="none" xmlns="http://www.w3.org/2000/svg">
<g filter="url(#filter0_d_66_8)">
<path d="M91.7797 137.935C158.202 58.0611 273.225 43.5658 322.434 46.3025C455.04 40.0611 442.792 133.003 420.093 180.254C433.021 219.479 404.8 309.732 296.91 374.729C189.019 439.726 114.967 383.033 91.4266 346.563C42.9623 321.28 25.3572 217.809 91.7797 137.935Z" fill="white"/>
</g>
<path d="M190.667 77.6667C190.667 69.5665 184.1 63 176 63C167.9 63 161.333 69.5665 161.333 77.6667V195C161.333 203.1 167.9 209.667 176 209.667C184.1 209.667 190.667 203.1 190.667 195V77.6667ZM271.221 103.958C265.995 98.5315 257.403 98.9305 252.076 104.258C245.992 110.341 246.619 120.321 252.393 126.699C268.726 144.739 278.667 168.688 278.667 195C278.667 251.76 232.76 297.667 176 297.667C119.24 297.667 73.3333 251.76 73.3333 195C73.3333 168.63 83.3175 144.633 99.6338 126.498C105.343 120.152 105.929 110.263 99.8936 104.227C94.5838 98.9172 86.0196 98.5196 80.8093 103.927C58.0095 127.589 44 159.586 44 195C44 267.893 103.107 327 176 327C248.893 327 308 267.893 308 195C308 159.602 294.003 127.617 271.221 103.958Z" fill="#6AA9F4"/>
<defs>
<filter id="filter0_d_66_8" x="44.2805" y="45.9973" width="394.059" height="366.423" filterUnits="userSpaceOnUse" color-interpolation-filters="sRGB">
<feFlood flood-opacity="0" result="BackgroundImageFix"/>
<feColorMatrix in="SourceAlpha" type="matrix" values="0 0 0 0 0 0 0 0 0 0 0 0 0 0 0 0 0 0 127 0" result="hardAlpha"/>
<feOffset dy="4"/>
<feGaussianBlur stdDeviation="2"/>
<feColorMatrix type="matrix" values="0 0 0 0 0 0 0 0 0 0 0 0 0 0 0 0 0 0 0.25 0"/>
<feBlend mode="normal" in2="BackgroundImageFix" result="effect1_dropShadow_66_8"/>
<feBlend mode="normal" in="SourceGraphic" in2="effect1_dropShadow_66_8" result="shape"/>
</filter>
</defs>
</svg>
