<svg width="362" height="505" viewBox="0 0 362 505" fill="none" xmlns="http://www.w3.org/2000/svg">
<path fill-rule="evenodd" clip-rule="evenodd" d="M169.979 88.1664C163.585 82.6005 158.816 75.4227 158.342 66.813C156.977 42.0061 193.805 43.2129 202.441 54.8086C211.077 66.4043 214.321 97.9892 205.526 101.265C202.019 102.571 194.022 101.301 185.588 97.7294L194.799 130.204L165.693 133.591L169.979 88.1664Z" fill="#E8B191"/>
<path fill-rule="evenodd" clip-rule="evenodd" d="M183.998 42.4319C180.085 42.2822 169.703 43.0741 167.798 43.296C166.581 43.4377 165.296 43.8547 164.438 42.8794C163.735 42.0807 163.761 40.5886 163.455 39.6026C163.098 38.4571 162.658 37.3367 162.215 36.2196C160.954 33.0409 159.286 30.0713 157.137 27.351C153.105 22.2474 147.683 18.5132 141.217 16.7255C134.077 14.7516 126.32 15.012 119.098 16.4213C111.369 17.9293 104.618 21.1939 97.5453 24.3499C90.805 27.3573 83.5598 29.0754 76.0749 28.8607C68.5336 28.6445 62.4483 25.4935 55.7376 22.6116C48.8677 19.6611 41.2506 18.095 33.7669 19.5295C26.7811 20.8688 20.6383 24.385 15.2839 28.7504C10.2742 32.8347 6.30952 37.5086 4.52434 43.6452C2.60384 50.2464 3.49989 57.1427 8.71613 62.1722C16.2769 69.4624 28.6469 70.1358 38.6871 68.7575C44.4945 67.9606 50.0828 66.2878 55.3429 63.8157C62.3578 60.5188 68.1568 55.6395 74.5803 51.4806C77.5949 49.529 80.7542 47.8467 84.1208 46.5079C87.3877 45.2083 90.6672 44.405 93.9823 45.9859C97.4893 47.6584 100.655 49.3337 104.529 50.1853C108.246 51.0023 112.103 51.2523 115.89 50.7835C123.257 49.8715 130.244 46.8482 137.217 44.5564C142.904 42.6876 148.999 40.7753 155.102 41.2256C157.648 41.4135 161.405 41.9761 162.619 44.3187C147.852 48.6704 144.213 67.0626 150.155 79.562C153.362 86.3084 168.238 92.9001 173.131 88.5879C176.231 85.8559 173.768 83.0296 172.169 81.1606C169.106 77.5816 167.585 72.7034 171.973 69.453C175.758 66.6495 180.771 71.6778 180.851 71.6623C181.964 71.4477 190.995 65.1169 196.698 56.7486C203.343 56.3516 203.809 52.1132 201.797 48.9256C199.786 45.7379 189.405 42.6395 183.998 42.4319Z" fill="#191847"/>
<path fill-rule="evenodd" clip-rule="evenodd" d="M175.658 228.261L220.415 374.42L241.466 484.158H262.596L241.504 228.261H175.658Z" fill="#784931"/>
<path fill-rule="evenodd" clip-rule="evenodd" d="M155.544 228.261C158.667 304.189 157.435 345.603 156.737 352.502C156.038 359.4 152.07 405.601 125.03 486.474H147.006C182.816 408.89 195.316 362.689 199.423 352.502C203.53 342.314 215.66 300.9 233.369 228.261H155.544Z" fill="#E8B191"/>
<path fill-rule="evenodd" clip-rule="evenodd" d="M174.697 228.261C186.339 278.554 206.475 358.836 235.104 469.105H266.008C268.29 355.924 258.58 281.432 241.765 228.261H174.697Z" fill="#69A1AC"/>
<path fill-rule="evenodd" clip-rule="evenodd" d="M155.388 228.261C158.446 304.189 150.52 378.994 125.967 470.287H158.94C194.815 393.862 220.528 319.427 238.101 228.261H155.388Z" fill="#C5CFD6"/>
<path fill-rule="evenodd" clip-rule="evenodd" d="M121.898 501.526L123.11 483C130.21 484.968 139.102 484.196 149.787 480.684C161.276 488.396 175.739 493.663 193.176 496.483C194.506 496.698 195.401 497.894 195.174 499.155C195.159 499.237 195.14 499.317 195.116 499.397L193.439 505H149.787H124.323L121.898 501.526Z" fill="#191847"/>
<path fill-rule="evenodd" clip-rule="evenodd" d="M236.75 501.526L237.962 483C245.062 484.968 253.954 484.196 264.639 480.684C276.128 488.396 290.591 493.663 308.028 496.483C309.359 496.698 310.253 497.894 310.026 499.155C310.011 499.237 309.992 499.317 309.968 499.397L308.292 505H264.639H239.175L236.75 501.526Z" fill="#191847"/>
<path fill-rule="evenodd" clip-rule="evenodd" d="M276.558 201.975L319.91 222.271C330.816 223.194 340.129 225.053 347.851 227.847C349.766 228.996 352.297 231.549 345.362 232.193C338.426 232.838 331.162 233.812 330.63 236.181C330.097 238.551 334.73 240.504 333.377 243.807C332.475 246.009 325.535 242.025 312.56 231.855L271.772 223.269L276.558 201.975ZM129.362 227.522L154.524 223.414C147.836 273.507 144.143 300.11 143.447 303.223C141.879 310.227 149.624 319.202 153.139 324.133C145.581 328.984 144.057 315.95 134.554 322.244C125.88 327.989 120.097 336.738 107.993 332.179C106.504 331.618 104.484 328.909 107.608 326.006C115.391 318.774 126.275 306.573 127.383 302.971C128.892 298.058 129.552 272.909 129.362 227.522Z" fill="#E8B191"/>
<path fill-rule="evenodd" clip-rule="evenodd" d="M182.216 115.59L192.306 112.16C236.791 137.313 263.944 195.379 317.249 219.635L308.349 234.918C224.465 239.003 190.338 168.344 182.216 115.59Z" fill="#1F28CF"/>
<path fill-rule="evenodd" clip-rule="evenodd" d="M159.914 247.085C201.634 240.113 232.322 234.985 251.978 231.701C256.185 230.998 254.321 225.373 253.173 222.57C239.916 190.217 205.795 158.656 196.915 110.933L169.625 111.424C153.89 148.572 153.963 191.06 159.914 247.085Z" fill="#DDE3E9"/>
<path fill-rule="evenodd" clip-rule="evenodd" d="M142.59 149.872C138.537 149.466 135.027 147.526 132.059 144.052C119.265 129.076 121.07 119.353 130.884 114.616C140.698 109.878 151.099 114.52 167.626 111.758C168.525 111.608 169.358 111.524 170.126 111.506L178.523 110.566C216.628 183.187 232.716 233.199 226.786 260.601L154.325 272.71C151.797 282.914 149.174 291.583 146.456 298.716L126.711 302.015C114.259 245.386 119.552 194.672 142.59 149.872Z" fill="#2B44FF"/>
<path fill-rule="evenodd" clip-rule="evenodd" d="M162.783 230.729C168.424 248.418 174.569 260.914 181.216 268.216L154.325 272.709C157.274 260.806 160.093 246.813 162.783 230.729L162.783 230.729Z" fill="black" fill-opacity="0.1"/>
</svg>
