<svg width="101" height="101" viewBox="0 0 101 101" fill="none" xmlns="http://www.w3.org/2000/svg">
<path d="M38.8713 50.4203C37.6997 49.2487 35.8003 49.2487 34.6287 50.4203C33.4571 51.5918 33.4571 53.4913 34.6287 54.6629L38.8713 50.4203ZM51.5417 67.3333L49.4203 69.4546C49.983 70.0172 50.746 70.3333 51.5417 70.3333C52.3373 70.3333 53.1004 70.0172 53.663 69.4546L51.5417 67.3333ZM68.4547 54.6629C69.6262 53.4913 69.6262 51.5918 68.4547 50.4203C67.2831 49.2487 65.3836 49.2487 64.212 50.4203L68.4547 54.6629ZM54.5417 31.8333C54.5417 30.1764 53.1985 28.8333 51.5417 28.8333C49.8848 28.8333 48.5417 30.1764 48.5417 31.8333H54.5417ZM95 50.5C95 75.0767 75.0767 95 50.5 95V101C78.3904 101 101 78.3904 101 50.5H95ZM50.5 95C25.9233 95 6 75.0767 6 50.5H0C0 78.3904 22.6096 101 50.5 101V95ZM6 50.5C6 25.9233 25.9233 6 50.5 6V0C22.6096 0 0 22.6096 0 50.5H6ZM50.5 6C75.0767 6 95 25.9233 95 50.5H101C101 22.6096 78.3904 0 50.5 0V6ZM34.6287 54.6629L49.4203 69.4546L53.663 65.2119L38.8713 50.4203L34.6287 54.6629ZM53.663 69.4546L68.4547 54.6629L64.212 50.4203L49.4203 65.2119L53.663 69.4546ZM48.5417 31.8333V67.3333H54.5417V31.8333H48.5417Z" fill="white"/>
</svg>
