<svg width="86" height="94" viewBox="0 0 86 94" fill="none" xmlns="http://www.w3.org/2000/svg">
<g filter="url(#filter0_d_10_234)">
<path d="M79 15C79 21.6274 62.8823 27 43 27C23.1177 27 7 21.6274 7 15M79 15C79 8.37258 62.8823 3 43 3C23.1177 3 7 8.37258 7 15M79 15V71C79 77.64 63 83 43 83C23 83 7 77.64 7 71V15M79 43C79 49.64 63 55 43 55C23 55 7 49.64 7 43" stroke="black" stroke-width="6" stroke-linecap="round" stroke-linejoin="round"/>
</g>
<defs>
<filter id="filter0_d_10_234" x="0" y="0" width="86" height="94" filterUnits="userSpaceOnUse" color-interpolation-filters="sRGB">
<feFlood flood-opacity="0" result="BackgroundImageFix"/>
<feColorMatrix in="SourceAlpha" type="matrix" values="0 0 0 0 0 0 0 0 0 0 0 0 0 0 0 0 0 0 127 0" result="hardAlpha"/>
<feOffset dy="4"/>
<feGaussianBlur stdDeviation="2"/>
<feColorMatrix type="matrix" values="0 0 0 0 0 0 0 0 0 0 0 0 0 0 0 0 0 0 0.25 0"/>
<feBlend mode="normal" in2="BackgroundImageFix" result="effect1_dropShadow_10_234"/>
<feBlend mode="normal" in="SourceGraphic" in2="effect1_dropShadow_10_234" result="shape"/>
</filter>
</defs>
</svg>
