<svg width="420" height="172" viewBox="0 0 420 172" fill="none" xmlns="http://www.w3.org/2000/svg">
<rect width="418.827" height="172" rx="30" fill="white"/>
<mask id="mask0_318_96" style="mask-type:alpha" maskUnits="userSpaceOnUse" x="3" y="12" width="417" height="160">
<rect x="3.40527" y="12" width="416.595" height="160" fill="white"/>
</mask>
<g mask="url(#mask0_318_96)">
<path fill-rule="evenodd" clip-rule="evenodd" d="M321.777 33.0937C337.361 21.7273 358.413 18.1986 374.659 25.597C390.866 32.9778 397.867 49.1476 392.534 65.3163C387.29 81.2171 370.544 92.9545 351.446 95.9754C330.414 99.3024 307.594 95.662 300.17 79.927C292.683 64.0599 304.798 45.478 321.777 33.0937Z" fill="#E5E5FE"/>
<path fill-rule="evenodd" clip-rule="evenodd" d="M176.193 32.4991C228.686 43.0955 270.121 75.7454 276.871 116.635C283.604 157.428 254.158 195.176 205.591 210.589C157.828 225.746 102.61 213.621 65.4701 183.722C24.5684 150.795 -1.74171 103.827 25.9648 65.9858C53.9038 27.8273 119 20.9538 176.193 32.4991Z" fill="#E5E5FE"/>
<path fill-rule="evenodd" clip-rule="evenodd" d="M395.646 90.653C399.881 95.0701 398.5 101.129 395.155 105.397C391.892 109.562 386.204 112.11 380.319 110.213C374.481 108.332 370.891 102.857 370.889 97.5779C370.887 93.1848 375.708 91.1995 380.31 89.9122C385.507 88.4588 391.795 86.6356 395.646 90.653Z" fill="#E5E5FE"/>
</g>
</svg>
