<svg width="1440" height="794" viewBox="0 0 1440 794" fill="none" xmlns="http://www.w3.org/2000/svg">
<g clip-path="url(#clip0_111_757)">
<path d="M1770 0H0V1024H1770V0Z" fill="#FFE975"/>
<path fill-rule="evenodd" clip-rule="evenodd" d="M1644.65 293.982C1820.56 419.282 1995.09 576.416 1993.64 780.72C1992.19 985.612 1816.68 1142.58 1637.76 1265.18C1464.9 1383.62 1260.44 1466.48 1048.75 1428.16C826.992 1388.01 635.21 1253.91 538.993 1066.25C442.67 878.379 457.383 659.669 559.839 474.574C660.857 292.077 844.192 154.859 1063.71 118.315C1274.76 83.1803 1475.2 173.281 1644.65 293.982Z" fill="#D48F53"/>
<mask id="mask0_111_757" style="mask-type:alpha" maskUnits="userSpaceOnUse" x="0" y="-1" width="1570" height="1025">
<path d="M1569.46 -1H0V1024H1569.46V-1Z" fill="#D1E3F9"/>
</mask>
<g mask="url(#mask0_111_757)">
<path fill-rule="evenodd" clip-rule="evenodd" d="M7.9458 13.06C113.651 0.220857 219.615 48.5965 286.557 124.745C353.928 201.384 383.287 306.838 347.922 399.799C315.861 484.077 214.078 515.836 124.515 550.695C42.6774 582.547 -46.3617 620.055 -126.298 584.369C-205.983 548.795 -238.313 463.325 -251.339 382.901C-262.999 310.906 -234.25 244.006 -191.334 182.791C-139.747 109.207 -86.5871 24.5421 7.9458 13.06Z" fill="#D48F53"/>
</g>
</g>
<defs>
<clipPath id="clip0_111_757">
<rect width="1770" height="1024" fill="white"/>
</clipPath>
</defs>
</svg>
