<svg width="300" height="300" viewBox="0 0 300 300" fill="none" xmlns="http://www.w3.org/2000/svg">
<path fill-rule="evenodd" clip-rule="evenodd" d="M84.8486 223.984C81.8416 227.049 78.6336 229.91 75.3396 232.663C72.0886 235.379 68.9596 238.314 65.5196 240.793C64.7196 241.372 63.8806 240.129 64.5086 239.472C67.4646 236.372 70.8556 233.672 74.0086 230.786C77.1412 227.91 80.4202 225.197 83.8326 222.659C84.6266 222.071 85.4906 223.33 84.8486 223.984ZM57.1316 180.823C51.0796 183.023 44.9226 185.008 38.6916 186.644C32.4166 188.292 25.9456 189.083 19.8326 190.716C19.6509 190.778 19.4968 190.902 19.3978 191.066C19.2988 191.23 19.2611 191.424 19.2916 191.614C19.322 191.803 19.4185 191.976 19.5641 192.101C19.7096 192.226 19.8947 192.295 20.0866 192.297C26.5396 192.475 33.2606 190.821 39.4686 189.212C45.8104 187.571 51.9864 185.346 57.9176 182.565C58.8996 182.1 58.1526 180.452 57.1316 180.823ZM62.6316 140.012C58.3494 137.588 53.9356 135.404 49.4106 133.471C44.7586 131.371 40.2726 129.759 35.6106 127.839C34.8186 127.513 34.1846 128.832 34.9626 129.218C39.4226 131.435 43.5496 133.733 48.1366 135.831C52.6172 137.99 57.2147 139.898 61.9076 141.545C62.1039 141.603 62.3143 141.588 62.5009 141.505C62.6876 141.421 62.8381 141.273 62.9255 141.088C63.0129 140.903 63.0313 140.693 62.9774 140.496C62.9235 140.299 62.8009 140.127 62.6316 140.012ZM94.2056 152.97C94.5056 151.786 92.8056 151.285 92.2426 152.282C90.0506 156.143 89.3126 160.837 89.1366 165.216C88.9646 169.458 89.2236 174.429 91.4086 178.178C91.8636 178.959 93.2636 178.501 93.0626 177.642C92.0566 173.602 91.6469 169.437 91.8466 165.279C91.9996 161.03 93.1606 157.055 94.2056 152.97ZM100.778 136.955C98.6026 138.408 95.3776 143.236 94.8906 146.07C94.8168 146.333 94.8443 146.613 94.9676 146.857C95.0909 147.1 95.3011 147.289 95.5566 147.384C95.8121 147.48 96.0943 147.477 96.3472 147.374C96.6002 147.272 96.8055 147.078 96.9226 146.832C98.2321 143.886 99.8827 141.104 101.841 138.543C102.8 137.384 101.6 136.409 100.778 136.955ZM99.1856 207.319C93.197 202.29 88.4133 195.981 85.1874 188.858C81.9615 181.734 80.3756 173.977 80.5466 166.159C80.7904 158.218 82.7984 150.431 86.4249 143.362C90.0514 136.294 95.2056 130.121 101.514 125.291C101.7 125.144 101.821 124.931 101.854 124.697C101.887 124.462 101.829 124.224 101.691 124.031C101.554 123.839 101.347 123.706 101.115 123.661C100.882 123.617 100.641 123.663 100.442 123.791C93.391 128.84 87.661 135.514 83.7371 143.248C79.8131 150.982 77.8108 159.547 77.8996 168.219C78.1556 188.062 88.0296 202.711 103.511 213.835C112.011 219.946 121.711 226.394 123.881 237.402C124.072 238.374 125.555 238.307 125.455 237.272C124.066 222.87 109.033 215.574 99.1856 207.319ZM220.893 150.448C220.457 149.57 218.922 150.239 219.299 151.159C221.548 156.601 222.65 162.448 222.537 168.335C222.423 174.222 221.096 180.022 218.638 185.373C212.531 198.31 201.162 203.1 192.466 213.189C188.086 218.271 184.466 224.689 185.102 231.62C185.115 231.832 185.21 232.031 185.366 232.176C185.522 232.32 185.728 232.399 185.94 232.395C186.153 232.392 186.356 232.307 186.508 232.158C186.659 232.008 186.747 231.807 186.754 231.594C187.176 223.329 191.654 217.179 197.205 211.788C205.963 203.275 215.384 198.054 220.83 186.35C226.069 175.091 226.454 161.667 220.893 150.448ZM229.525 225.698C225.525 223.345 220.311 220.051 216.105 218.364C215.161 217.985 214.766 219.307 215.421 219.847C218.909 222.724 224.326 225.728 228.304 228.115C232.686 230.744 237.052 233.399 241.628 235.683C241.864 235.821 242.144 235.863 242.41 235.798C242.676 235.733 242.906 235.568 243.052 235.336C243.198 235.105 243.248 234.826 243.191 234.558C243.135 234.29 242.977 234.055 242.75 233.902C238.492 230.929 234 228.328 229.525 225.7V225.698ZM277.23 172.277C271.987 171.757 266.719 171.528 261.45 171.591C256.118 171.505 250.789 171.458 245.458 171.603C244.535 171.628 244.458 173.182 245.393 173.249C250.644 173.624 255.905 173.815 261.168 173.963C266.497 174.266 271.838 174.273 277.168 173.985C277.372 173.959 277.56 173.862 277.698 173.71C277.837 173.558 277.917 173.363 277.924 173.157C277.932 172.952 277.866 172.751 277.739 172.59C277.612 172.428 277.431 172.318 277.23 172.277ZM249.442 129.477C253.881 128.24 258.211 126.643 262.391 124.703C266.624 122.855 270.651 120.569 274.407 117.881C275.351 117.158 274.271 115.767 273.27 116.23C269.17 118.125 265.291 120.47 261.21 122.407C257.301 124.262 252.888 126.419 248.925 128.047C248.768 128.137 248.648 128.28 248.586 128.45C248.523 128.62 248.523 128.807 248.585 128.977C248.646 129.147 248.766 129.29 248.923 129.381C249.08 129.472 249.264 129.504 249.442 129.473V129.477ZM189.377 87.3771C177.506 78.4341 167.689 74.8511 153.097 71.7211C152.255 71.5401 152.505 70.2311 153.328 70.2601C158.805 70.5551 164.204 71.6879 169.337 73.6191C165.712 65.4661 158.774 59.5411 152.886 58.0991C146.265 60.8191 136.73 68.7441 133.846 72.2161C137.528 83.0161 126.512 91.9681 113.489 86.7581C105.78 89.9127 98.6598 94.3505 92.4326 99.8831C97.9686 102.383 103.743 112.147 105.524 120.395C113.38 117.465 122.497 114.317 131.071 115.186C139.645 116.055 166.127 129.295 177.848 131.9C172.114 122.812 176.343 101.246 189.377 87.3691V87.3771Z" fill="#254FA3"/>
<path fill-rule="evenodd" clip-rule="evenodd" d="M121.16 240.943C130.276 254.117 125.46 273.812 135.912 286.522C147.902 301.104 172.602 295.204 179.648 281.457C186.683 267.731 182.008 258.157 188.591 235.734C167.827 248.029 134.978 245.714 121.16 240.943ZM175.551 273.833C171.765 278.66 165.632 281.915 159.916 283.81C154.021 285.914 147.67 286.397 141.525 285.21C141.346 285.157 141.191 285.042 141.09 284.885C140.988 284.728 140.946 284.54 140.971 284.355C140.996 284.17 141.087 284 141.226 283.876C141.366 283.751 141.545 283.681 141.732 283.678C147.676 284.056 153.636 283.235 159.256 281.264C164.874 279.378 170.068 276.411 174.545 272.529C175.339 271.881 176.073 273.168 175.551 273.833ZM177.98 261.179C173.952 266.694 167.963 269.997 161.465 271.817C156.893 273.097 143.185 275.096 138.329 273.736C137.549 273.517 137.629 272.254 138.359 272.26C145.737 272.117 153.076 271.16 160.244 269.405C166.416 267.788 172.056 264.579 176.6 260.1C177.291 259.392 178.574 260.367 177.98 261.179ZM178.013 247.727C178.731 247.279 179.78 248.185 179.101 248.91C174.601 253.716 165.286 257.71 158.95 259.38C151.547 261.424 143.787 261.826 136.212 260.556C135.194 260.378 135.512 258.929 136.501 259.009C143.84 259.646 151.233 258.988 158.344 257.064C166.76 254.7 171.251 251.946 178.013 247.727ZM175.193 152.308C169.455 149.881 166.901 152.028 165.371 157.557C162.496 167.984 160.814 178.703 160.356 189.509C154.155 190.604 147.836 190.868 141.565 190.292C140.306 184.65 136.045 166.557 132.865 162.043C130.783 159.083 127.472 158.697 124.639 160.826C121.589 163.118 116.539 172.29 114.781 176.103C112.281 181.515 113.717 184.362 118.932 186.72C125.461 189.663 132.403 191.586 139.516 192.42C141.024 199.308 142.232 206.145 143.109 213.149C144.048 220.636 144.629 228.449 145.219 235.995C145.233 236.189 145.321 236.371 145.465 236.502C145.609 236.633 145.798 236.704 145.993 236.699C146.188 236.694 146.373 236.614 146.511 236.476C146.648 236.338 146.727 236.152 146.731 235.957C146.896 228.149 146.464 220.34 145.439 212.598C144.602 205.921 143.473 199.257 142.078 192.673C148.148 193.187 154.258 192.945 160.268 191.954C159.88 205.365 161.388 218.764 164.746 231.754C165.106 233.121 167.185 232.505 166.846 231.137C163.653 218.192 162.225 204.875 162.6 191.548C170.3 190.013 184.035 185.391 189.206 178.982C193.873 173.197 191.385 166.269 186.992 161.082C183.788 157.287 179.749 154.285 175.193 152.308ZM122.021 185.576C116.071 183.149 114.144 182.301 117.502 175.81C119.291 172.353 122.714 165.936 125.369 163.31C126.839 161.859 128.833 161.11 130.415 162.817C133.215 165.849 137.947 185.45 138.99 189.987C133.167 189.257 127.463 187.774 122.021 185.576ZM187.451 177.376C183.135 183.188 169.828 187.551 162.699 189.059C163.116 180.192 164.944 165.24 168.111 156.545C169.111 153.811 170.563 153.295 173.311 154.194C179.086 156.088 185.897 161.92 188.356 167.383C189.148 168.968 189.483 170.743 189.323 172.508C189.163 174.273 188.515 175.959 187.451 177.376ZM126.065 46.2119C123.159 47.2909 122.755 50.5899 123.434 53.3509C122.928 53.2969 122.416 53.3588 121.937 53.5321C121.458 53.7053 121.025 53.9854 120.67 54.3509C119.317 51.5999 116.186 49.2129 113.162 50.9299C110.615 52.3759 110.499 56.2169 111.208 58.7099C110.008 59.1899 108.535 59.4459 107.263 59.9419C107.109 60.0176 106.986 60.1459 106.918 60.3037C106.85 60.4615 106.84 60.6385 106.891 60.8028C106.942 60.9671 107.049 61.1079 107.194 61.2C107.34 61.292 107.513 61.3292 107.683 61.3049C108.944 61.0729 110.493 60.6049 111.783 60.2569C113.129 63.1909 115.871 65.9799 119.339 64.2149C122.791 62.4589 122.429 59.0369 121.331 55.9329C121.619 55.5235 122.027 55.2127 122.498 55.0426C122.969 54.8725 123.481 54.8513 123.964 54.9819C125.004 57.6249 127.504 61.1759 130.78 59.5909C134.056 58.0059 133.454 53.6909 132.531 50.9089C131.608 48.1269 129.282 45.0189 126.065 46.2119ZM118.722 62.7379C115.886 64.2379 113.764 61.2589 112.957 58.9519C112.288 57.0359 111.965 53.6249 113.898 52.3569C116.428 50.6969 118.864 53.9339 119.654 55.9999C120.535 58.3059 121.351 61.3499 118.722 62.7379ZM130.142 58.1459C127.421 59.2889 125.925 56.0629 125.124 54.0459C124.292 51.9529 124.052 48.5289 126.597 47.6739C129.119 46.8259 130.645 49.9619 131.238 51.8739C131.854 53.8659 132.265 57.2539 130.142 58.1459ZM116.91 59.0529C117.28 59.8669 117.233 60.4639 116.762 60.8529C116.131 61.3819 115.5 60.9529 115.102 60.2709C114.825 59.7959 114.527 58.6939 115.262 58.2369C115.888 57.8519 116.662 58.5079 116.91 59.0529ZM129.01 54.8729C129.099 55.156 129.109 55.458 129.038 55.7463C128.968 56.0345 128.82 56.2979 128.61 56.5079C127.969 56.9299 127.268 56.2019 127.077 55.5869C126.843 54.8369 126.885 54.0209 127.377 53.6949C128.154 53.1869 128.842 54.2409 129.011 54.8729H129.01ZM125.818 62.4999C126.228 62.1149 126.37 61.8329 126.007 61.3639C125.316 60.6015 124.528 59.9328 123.663 59.3749C122.994 58.9049 123.72 57.7999 124.423 58.1749C125.214 58.6102 125.943 59.1482 126.593 59.7749C128.331 61.4229 128.103 62.9279 126.179 64.2839C125.412 64.8834 124.482 65.2393 123.511 65.3059C123.365 65.2743 123.23 65.2014 123.124 65.0957C123.018 64.99 122.944 64.856 122.912 64.7097C122.88 64.5633 122.89 64.4108 122.942 64.2703C122.994 64.1297 123.085 64.0071 123.205 63.9169C123.82 63.4239 124.945 63.3199 125.818 62.4999ZM120.286 68.7509C121.629 68.8824 122.98 68.6005 124.158 67.9429C125.083 67.4299 125.551 68.5979 124.887 69.1129C123.479 69.971 121.844 70.3824 120.197 70.2929C118.57 70.2805 116.989 69.7522 115.682 68.7839C115.063 68.2669 115.655 67.1089 116.421 67.5149C117.58 68.2564 118.912 68.6818 120.286 68.7489V68.7509ZM116.948 75.0159C121.167 75.4549 125.985 75.9399 129.548 73.1449C133.904 69.7339 132.235 65.2979 130.675 61.7299C130.251 60.7599 131.593 60.3749 131.969 61.1379C134.176 65.6089 135.093 70.5169 130.815 74.0849C126.859 77.3849 121.553 77.0979 116.755 76.4129C115.965 76.2999 116.159 74.9319 116.948 75.0139V75.0159ZM156.871 55.8639C160.787 53.0559 164.891 50.4469 167.208 46.0559C169.74 41.2559 169.931 35.6729 170.082 30.3639C168.29 30.5421 166.501 30.0096 165.098 28.881C163.695 27.7524 162.792 26.1181 162.582 24.3299C162.559 24.1497 162.604 23.9674 162.708 23.8187C162.813 23.67 162.969 23.5655 163.146 23.5256C163.323 23.4858 163.509 23.5134 163.667 23.6031C163.825 23.6929 163.944 23.8382 164 24.0109C164.176 25.3492 164.848 26.5726 165.884 27.4384C166.92 28.3041 168.243 28.7491 169.591 28.6849C171.221 28.5909 171.812 28.7439 171.774 30.0849C171.613 35.7569 171.38 41.6249 168.726 46.7749C166.369 51.3509 162.015 54.4879 157.714 57.0979C156.991 57.5389 156.184 56.3539 156.871 55.8619V55.8639ZM171.421 7.6449C170.842 7.0449 171.721 6.0449 172.388 6.5449C174.207 7.99175 175.622 9.88243 176.498 12.0349C177.274 13.8519 178.005 16.9239 177.579 18.8669C177.515 19.0433 177.395 19.1939 177.237 19.2962C177.08 19.3985 176.893 19.4468 176.706 19.434C176.519 19.4211 176.341 19.3477 176.199 19.2249C176.057 19.1021 175.959 18.9364 175.919 18.7529C175.656 16.3129 175.886 15.1649 174.896 12.7059C174.082 10.806 172.901 9.08552 171.421 7.6429V7.6449ZM179.6 18.8699C180.474 16.8287 180.995 14.6537 181.141 12.4379C181.21 10.2154 180.891 7.99789 180.198 5.8849C179.965 5.0609 181.165 4.6479 181.587 5.3789C182.598 7.1269 182.938 10.4789 182.867 12.5019C182.851 14.9581 182.253 17.3756 181.122 19.5559C181.012 19.7244 180.845 19.8479 180.652 19.9043C180.458 19.9607 180.251 19.9462 180.068 19.8635C179.884 19.7808 179.736 19.6352 179.65 19.453C179.565 19.2709 179.547 19.0641 179.6 18.8699ZM182.064 21.8979C183.46 20.7903 184.656 19.4503 185.597 17.9369C186.52 16.3725 187.218 14.6859 187.671 12.9269C187.709 12.7385 187.819 12.5724 187.978 12.4641C188.136 12.3558 188.331 12.314 188.52 12.3476C188.709 12.3812 188.878 12.4875 188.99 12.6439C189.101 12.8002 189.147 12.994 189.118 13.1839C188.823 15.1733 188.12 17.0801 187.051 18.7839C186.03 20.4801 184.726 21.9886 183.195 23.2439C183.501 27.8769 183.67 32.5239 183.878 37.1619C184.584 52.8819 183.642 58.7149 170.094 69.2189C169.194 69.9189 168.194 68.4619 169.087 67.7679C182.634 57.2409 182.721 51.7119 182.096 36.2839C181.919 31.8929 181.69 27.5009 181.604 23.1079C181.597 22.8858 181.635 22.6646 181.715 22.4572C181.794 22.2498 181.914 22.0604 182.068 21.8999L182.064 21.8979ZM101.5 73.5899C93.8256 82.9239 89.4056 92.1069 89.9736 104.449C89.9979 104.648 89.9421 104.848 89.8187 105.006C89.6952 105.164 89.514 105.266 89.3151 105.29C89.1162 105.315 88.9158 105.259 88.758 105.136C88.6002 105.012 88.4979 104.831 88.4736 104.632C86.8736 92.9979 92.6576 81.0859 100.136 72.5319C100.871 71.6999 102.212 72.7279 101.5 73.5899ZM102.258 120.022C98.0246 122.363 89.6036 124.851 84.7706 125.564C58.9236 129.381 66.5806 101.212 74.6286 88.2639C78.886 81.42 83.737 74.9638 89.1256 68.9699C86.8092 62.7272 86.6176 55.8946 88.5806 49.5319C88.9126 48.4959 90.5566 48.1779 90.1496 50.0679C88.5246 57.6109 88.7786 60.9679 90.5616 67.9879C90.742 68.4088 90.7953 68.8732 90.715 69.324C90.6346 69.7747 90.4242 70.1922 90.1096 70.5249C83.4608 77.31 77.9258 85.1031 73.7096 93.6159C67.5096 106.607 63.6736 127.216 85.2726 123.671C91.3286 122.678 95.9026 120.471 101.558 118.749C102.3 118.524 103.03 119.6 102.261 120.022H102.258ZM238.718 143.977C240.234 147.313 245.533 157.694 245.546 160.711C245.563 164.765 241.669 167.1 238.433 163.956C234.503 160.14 232.801 155.9 227.766 151.79C224.647 149.244 220.531 147.363 218.324 143.979C217.483 142.771 216.958 141.371 216.798 139.908C216.638 138.444 216.848 136.964 217.408 135.603C217.778 134.69 219.308 135.144 219.069 136.103C218.734 137.286 218.661 138.527 218.855 139.741C219.05 140.954 219.507 142.111 220.194 143.13C221.95 145.553 226.394 147.851 228.983 149.974C234.197 154.242 235.593 157.474 239.569 161.951C241.529 164.158 243.436 163.243 243.444 160.685C243.45 158.392 238.233 148.524 236.637 145.126C235.277 142.226 233.245 138.657 232.537 135.677C232.297 134.677 233.746 133.444 234.319 134.99C235.562 138.353 237.375 141.017 238.721 143.977H238.718ZM280.708 60.4189C280.247 65.5719 274.903 86.0189 273.677 89.8969C271.405 97.0879 264.506 96.3639 258.942 93.7299C257.96 93.2649 258.601 91.7159 259.617 91.9759C263.796 93.0429 269.687 94.8049 271.374 89.2119C273.08 83.5539 278.449 65.4119 278.582 60.3749C278.623 58.8369 277.651 58.2749 276.468 59.1959C272.468 62.2959 266.977 72.0249 264.261 76.5369C263.832 77.2509 262.519 76.8369 262.829 75.9869C264.376 71.7529 271.737 59.5809 275.678 57.2129C276.204 56.862 276.821 56.6716 277.453 56.665C278.086 56.6583 278.706 56.8357 279.239 57.1754C279.773 57.5151 280.196 58.0026 280.457 58.5785C280.718 59.1544 280.807 59.7938 280.711 60.4189H280.708ZM214.857 133.2C215.475 127.922 215.79 122.614 215.798 117.3C220.203 107.193 223.728 95.4539 226.708 84.8699C231.273 86.281 235.7 88.108 239.931 90.3279C239.897 98.8649 238.025 128.634 236.455 131.251C231.146 134.07 218.33 133.527 214.857 133.2ZM260.006 73.9409C259.898 80.5619 255.123 92.3079 253.606 95.6059C249.229 92.3189 234.83 85.2279 226.306 82.4739C226.031 82.3856 225.733 82.4097 225.476 82.5409C225.219 82.672 225.025 82.8997 224.935 83.1739C222.657 91.4739 220.276 99.7739 217.288 107.851C212.111 121.841 204.224 134.626 181.324 129.951C168.424 104.88 213.934 56.5149 220.724 55.0989C229.183 53.3329 254.8 69.5999 260.006 73.9429V73.9409ZM115.819 84.1409C114.96 81.1789 109.219 73.1189 107.244 71.0049C107.691 70.6915 108.052 70.2709 108.294 69.7817C108.536 69.2925 108.651 68.7503 108.629 68.2049C108.552 67.3909 107.286 67.1439 107.123 68.0449C107.089 68.4929 106.936 68.9237 106.681 69.2933C106.425 69.6628 106.076 69.9578 105.669 70.148C105.262 70.3382 104.812 70.4167 104.364 70.3756C103.917 70.3344 103.489 70.1751 103.123 69.9139C101.107 68.6399 99.6836 65.0589 100.723 62.7629C100.858 62.501 101.047 62.2713 101.279 62.0893C101.51 61.9073 101.778 61.7774 102.064 61.7084C102.351 61.6394 102.648 61.6329 102.937 61.6894C103.226 61.746 103.5 61.8641 103.739 62.0359C103.893 62.1327 104.075 62.1754 104.256 62.1573C104.437 62.1392 104.607 62.0613 104.739 61.9359C106.149 60.1141 107.165 58.0188 107.723 55.7832C108.28 53.5476 108.366 51.2205 107.975 48.9499C113.32 48.5866 118.538 47.1544 123.32 44.7379C129.067 41.8309 133.35 38.5829 131.671 30.3809C130.671 25.4809 126.656 20.2379 120.3 21.7279C112.283 23.6069 97.9146 36.7979 97.2356 44.7529C94.5186 45.3619 92.2606 46.6689 91.7646 49.5969C90.8746 54.8549 94.9406 61.0089 98.8526 64.1129C98.7326 67.9509 101.277 72.8309 105.878 71.7429C109.087 75.9131 111.986 80.3122 114.554 84.9049C115 85.7119 116.035 84.8879 115.819 84.1409ZM109.791 32.1289C112.218 29.2973 115.28 27.0796 118.727 25.6569C121.657 24.4179 126.568 24.2639 126.948 28.3409C126.944 28.5316 126.878 28.7158 126.761 28.8658C126.643 29.0158 126.479 29.1233 126.295 29.1721C126.11 29.2209 125.915 29.2083 125.739 29.1363C125.562 29.0643 125.414 28.9367 125.316 28.7729C123.947 25.7149 120.516 26.7939 118.151 27.9479C115.464 29.3249 112.988 31.079 110.798 33.1569C110.66 33.2824 110.479 33.3495 110.293 33.3442C110.106 33.3389 109.929 33.2615 109.799 33.1283C109.669 32.9952 109.595 32.8166 109.593 32.6302C109.592 32.4438 109.663 32.2641 109.791 32.1289ZM163.781 19.1219C164.062 18.2861 164.542 17.5307 165.178 16.9202C165.815 16.3097 166.59 15.8622 167.436 15.6159C168.283 15.3695 169.177 15.3316 170.042 15.5054C170.906 15.6792 171.716 16.0595 172.402 16.6139C173.329 17.3416 173.988 18.3566 174.275 19.4995C174.563 20.6423 174.462 21.8482 173.99 22.9279C173.914 23.1124 173.773 23.2632 173.595 23.3526C173.416 23.4419 173.211 23.4639 173.018 23.4144C172.824 23.3649 172.655 23.2474 172.541 23.0832C172.427 22.9191 172.377 22.7194 172.398 22.5209C172.922 20.3409 172.37 18.2129 170.098 17.3859C169.141 17.0762 168.102 17.1415 167.191 17.5684C166.28 17.9953 165.565 18.7522 165.191 19.6859C165.116 19.8729 164.97 20.0225 164.785 20.1018C164.6 20.1811 164.391 20.1837 164.204 20.1089C164.017 20.0341 163.867 19.8881 163.788 19.703C163.709 19.5179 163.706 19.3089 163.781 19.1219Z" fill="#1B1A26"/>
</svg>
