<svg width="300" height="300" viewBox="0 0 300 300" fill="none" xmlns="http://www.w3.org/2000/svg">
<path d="M107 114.421C106.919 113.77 106.626 112.663 105.909 112.451C105.893 112.451 105.893 112.435 105.877 112.435C105.78 112.381 105.671 112.349 105.56 112.343C105.449 112.336 105.337 112.354 105.234 112.396C105.131 112.439 105.038 112.503 104.964 112.586C104.889 112.669 104.834 112.767 104.802 112.874C104.721 113.15 104.709 113.442 104.769 113.723C104.829 114.005 104.958 114.267 105.144 114.486C105.215 114.652 105.302 114.811 105.405 114.959C105.488 115.096 105.617 115.199 105.769 115.25C105.921 115.3 106.086 115.296 106.235 115.236C106.251 115.236 106.251 115.219 106.268 115.219C106.37 115.219 106.471 115.198 106.564 115.157C106.657 115.116 106.741 115.056 106.81 114.981C106.879 114.906 106.931 114.818 106.964 114.721C106.997 114.625 107.009 114.522 107 114.421Z" fill="#1B1A26"/>
<path d="M94.416 250.344C95.4492 253.861 97.4606 257.013 100.216 259.431C100.882 260.015 101.578 260.564 102.3 261.076C102.87 261.483 104.026 261.906 104.271 262.557C104.414 263.183 104.49 263.821 104.499 264.463C104.564 265.033 104.629 265.619 104.71 266.189C104.666 267.232 104.92 268.266 105.443 269.169C105.519 269.246 105.612 269.304 105.714 269.339C105.817 269.374 105.926 269.385 106.033 269.371C106.14 269.357 106.243 269.318 106.333 269.257C106.422 269.197 106.497 269.116 106.55 269.022C107.023 268.029 106.664 266.856 106.534 265.798C106.388 264.626 106.29 263.453 106.095 262.298C105.818 260.556 103.766 259.937 102.512 258.96C99.4549 256.554 96.9776 253.492 95.263 250C95.2044 249.909 95.1159 249.841 95.0128 249.809C94.9097 249.776 94.7984 249.78 94.6981 249.821C94.5978 249.861 94.5148 249.936 94.4633 250.031C94.4118 250.126 94.3951 250.236 94.416 250.342V250.344Z" fill="#1B1A26" stroke="#1B1A26" stroke-width="0.326" stroke-miterlimit="10"/>
<path d="M111.416 119.681C111.598 119.641 111.76 119.537 111.872 119.388C112.703 118.216 113.436 117.222 112.41 115.936C111.33 114.542 110.108 113.265 108.762 112.125C108.724 112.094 108.68 112.072 108.632 112.06C107.76 109.866 106.72 107.743 105.522 105.709C105.479 105.634 105.417 105.572 105.342 105.53C105.471 104.466 105.525 103.394 105.505 102.322C105.509 102.198 105.486 102.074 105.439 101.959C105.391 101.844 105.319 101.74 105.228 101.655C105.261 98.235 102.558 96.444 99.708 94.522C97.8483 93.2944 95.7314 92.5106 93.5207 92.2311C91.31 91.9516 89.0647 92.1839 86.958 92.91C82.758 94.229 79.239 95.629 76.617 99.179C74.028 102.697 72.139 109.618 71.195 113.835C68.915 123.996 70.218 132.106 69.664 142.414C69.4834 147.531 68.6572 152.604 67.205 157.514C66.896 158.475 66.033 159.761 66.668 160.689C67.4138 161.68 68.2596 162.591 69.192 163.409C70.9064 165.019 72.8025 166.423 74.842 167.594C84.45 173.049 95.409 169.515 104.479 163.213C104.658 163.105 104.797 162.942 104.877 162.749C104.956 162.555 104.971 162.342 104.919 162.139C102.248 155.511 101.63 151.489 100.881 144.389C100.229 138.152 100.913 131.297 97.624 125.679C97.539 125.539 97.4194 125.423 97.2768 125.343C97.1341 125.263 96.9732 125.221 96.8095 125.221C96.6458 125.221 96.4849 125.263 96.3422 125.343C96.1996 125.423 96.08 125.539 95.995 125.679C94.383 127.828 91.468 126.167 90.801 124.115C90.573 123.415 90.263 121.282 90.701 120.615C91.352 119.622 93.001 120.015 93.73 120.583C93.9134 120.684 94.1242 120.724 94.3319 120.698C94.5397 120.671 94.7337 120.58 94.886 120.436C97.752 117.945 100.699 116.105 102.786 112.897C103.849 111.244 104.605 109.412 105.017 107.49C106.857 112.39 109.088 117.163 110.342 122.26C110.879 124.442 111.661 127.878 109.918 129.734C108.927 130.659 107.627 131.182 106.271 131.2C105.602 131.236 104.931 131.164 104.284 130.988C103.743 130.751 103.164 130.613 102.574 130.581C102.46 130.583 102.349 130.613 102.25 130.671C102.152 130.728 102.07 130.81 102.013 130.908C101.955 131.007 101.924 131.118 101.923 131.232C101.921 131.346 101.949 131.458 102.004 131.558C102.309 131.929 102.688 132.233 103.117 132.449C103.546 132.665 104.016 132.789 104.496 132.812C103.812 134.668 103.714 138.007 105.163 139.505C105.274 139.608 105.415 139.673 105.565 139.689C105.715 139.705 105.867 139.673 105.997 139.596C106.127 139.519 106.229 139.402 106.287 139.262C106.345 139.122 106.356 138.968 106.319 138.821C105.924 137.824 105.64 136.786 105.473 135.727C105.408 134.782 105.505 133.838 105.391 132.893C105.473 132.893 105.554 132.91 105.636 132.91C107.07 132.961 108.492 132.629 109.755 131.949C112.475 130.467 112.849 127.487 112.524 124.67C112.31 122.976 111.939 121.306 111.416 119.681ZM80.444 99.456C78.6363 102.273 77.4121 105.424 76.844 108.722C76.5102 110.679 76.2818 112.652 76.16 114.633C76.1608 116.589 75.9811 118.54 75.623 120.463C75.6008 120.532 75.5573 120.592 75.4988 120.635C75.4403 120.677 75.3698 120.7 75.2975 120.7C75.2251 120.7 75.1546 120.677 75.0962 120.635C75.0377 120.592 74.9942 120.532 74.972 120.463C74.4944 118.364 74.4059 116.194 74.711 114.063C74.8503 112.086 75.095 110.119 75.444 108.168C75.7386 106.412 76.2359 104.696 76.926 103.055C77.2645 102.254 77.6731 101.484 78.147 100.755C78.6147 100.078 79.1932 99.4848 79.858 99C80.167 98.756 80.688 99.065 80.444 99.456ZM101.711 105.205C101.174 106.44 100.514 107.619 99.741 108.722C99.141 109.569 98.422 110.904 97.477 111.393C97.3982 111.435 97.31 111.457 97.2206 111.456C97.1312 111.455 97.0435 111.431 96.9656 111.388C96.8877 111.344 96.8222 111.281 96.775 111.205C96.7279 111.129 96.7007 111.042 96.696 110.953C96.8248 109.898 97.2229 108.894 97.852 108.038C98.389 107.061 98.992 106.116 99.513 105.107C100.025 104.128 100.398 103.082 100.62 102C100.781 100.884 100.852 99.7565 100.832 98.629C100.836 98.5024 100.88 98.3803 100.959 98.281C101.038 98.1816 101.146 98.1102 101.269 98.0774C101.391 98.0445 101.521 98.0519 101.639 98.0985C101.756 98.1451 101.856 98.2284 101.923 98.336C103.323 100.352 102.607 103.12 101.711 105.205ZM110.96 118.264C110.586 117.19 110.195 116.115 109.804 115.04C109.757 114.896 109.703 114.755 109.641 114.617C109.821 114.861 110.016 115.089 110.211 115.333C110.601 115.758 110.96 116.209 111.286 116.685C111.661 117.287 111.319 117.776 110.96 118.264Z" fill="#1B1A26" stroke="#1B1A26" stroke-width="0.163" stroke-miterlimit="10"/>
<path d="M106.254 142.853C107.117 142.381 107.883 141.746 108.713 141.225C109.716 140.623 110.851 140.276 112.019 140.215C116.806 139.808 121.561 140.899 126.137 142.186C134.67 144.579 144.637 148.08 151.508 152.021C155.595 154.366 158.708 156.337 161.864 159.772C162.402 160.359 162.841 159.903 162.337 159.317C159.813 156.304 157.728 155.148 154.585 152.607C151.345 149.986 146.395 147.507 142.568 145.817C138.3 144.041 133.921 142.545 129.459 141.339C124.942 139.836 120.263 138.869 115.52 138.457C113.175 138.343 110.52 138.31 108.371 139.385C106.171 140.492 104.593 142.511 101.89 142.007C101.785 141.979 101.673 141.987 101.572 142.028C101.471 142.07 101.387 142.143 101.331 142.237C101.276 142.331 101.253 142.441 101.266 142.549C101.279 142.657 101.326 142.758 101.402 142.837C102.77 144.205 104.773 143.684 106.254 142.853Z" fill="#1B1A26" stroke="#1B1A26" stroke-width="0.326" stroke-miterlimit="10"/>
<path d="M191.99 100.45C193.124 98.8106 193.992 97.0024 194.563 95.0922C195.312 93.0922 195.98 91.0702 196.533 89.0022C197.071 87.0022 197.527 84.9802 197.917 82.9442C198.117 81.8692 198.308 80.7782 198.455 79.7042C198.569 78.9042 198.955 77.8152 198.227 77.2612C198.136 77.178 198.021 77.1255 197.898 77.111C197.775 77.0965 197.651 77.1207 197.543 77.1802C196.696 77.5382 196.794 78.6292 196.68 79.4112C196.533 80.3712 196.37 81.3322 196.208 82.2932C195.833 84.3282 195.377 86.3642 194.84 88.3672C194.319 90.3052 193.765 92.2422 193.13 94.1482C192.327 96.0532 191.695 98.0256 191.241 100.042C191.225 100.4 191.681 100.84 191.99 100.45Z" fill="#1B1A26" stroke="#1B1A26" stroke-width="0.326" stroke-miterlimit="10"/>
<path d="M198.357 89.6372C198.36 89.7224 198.388 89.8048 198.437 89.8747C198.486 89.9446 198.554 89.999 198.633 90.0316C198.711 90.0641 198.798 90.0733 198.882 90.0582C198.966 90.0431 199.044 90.0042 199.106 89.9462C199.643 89.5072 200.23 89.1002 200.735 89.8322C201.043 90.4413 201.177 91.1229 201.125 91.8032C201.167 93.1232 201.068 94.4439 200.832 95.7432C200.611 96.9359 200.306 98.1115 199.92 99.2612C199.627 100.161 198.748 101.461 199.253 102.371C199.297 102.445 199.363 102.502 199.442 102.534C199.522 102.567 199.609 102.572 199.692 102.55C200.409 102.355 200.604 101.671 200.849 101.02C201.223 100.059 201.549 99.0652 201.826 98.0722C202.362 96.2038 202.625 94.2678 202.607 92.3242C202.575 90.9402 202.493 89.1002 201.125 88.3022C200.083 87.7322 198.276 88.2692 198.357 89.6372Z" fill="#1B1A26" stroke="#1B1A26" stroke-width="0.326" stroke-miterlimit="10"/>
<path d="M204.105 97.8441C203.962 98.8683 203.744 99.8806 203.454 100.873C203.006 101.852 202.72 102.897 202.607 103.967C202.623 104.293 203.031 104.618 203.34 104.39C204.61 103.446 204.968 101.41 205.294 99.9611C205.67 98.2662 205.862 96.5354 205.864 94.7991C205.864 93.6271 206.076 91.7701 204.985 90.9561C204.797 90.8035 204.57 90.7052 204.33 90.6719C204.09 90.6385 203.845 90.6714 203.622 90.7669C203.399 90.8624 203.207 91.0169 203.065 91.2138C202.924 91.4106 202.838 91.6424 202.819 91.8841C202.821 91.9702 202.847 92.0539 202.896 92.1251C202.944 92.1962 203.012 92.2517 203.092 92.2846C203.171 92.3175 203.259 92.3265 203.343 92.3104C203.428 92.2943 203.506 92.2539 203.568 92.1941C204.447 91.3631 204.333 94.0661 204.333 94.4411C204.338 95.5794 204.262 96.7167 204.105 97.8441Z" fill="#1B1A26" stroke="#1B1A26" stroke-width="0.326" stroke-miterlimit="10"/>
<path d="M207.883 93.7729C207.362 93.2359 206.304 93.0729 205.962 93.8729C205.862 94.0849 205.978 94.4259 206.271 94.3939C207.509 94.2799 207.071 96.8039 207.004 97.5689C206.89 98.8731 206.661 100.165 206.32 101.429C205.668 103.753 204.598 105.938 203.161 107.877C201.861 109.652 200.507 111.362 199.318 113.218C198.243 114.879 196.891 116.508 197.218 118.559C195.966 117.848 194.608 117.342 193.196 117.059C192.296 116.864 191.405 116.734 190.496 116.62C189.819 116.499 189.131 116.449 188.444 116.473C188.524 116.394 188.576 116.291 188.591 116.18C188.586 115.257 188.398 114.343 188.037 113.493C187.728 112.484 187.337 111.506 186.962 110.529C186.176 108.641 185.528 106.698 185.024 104.716C184.65 102.957 184.524 100.857 185.741 99.3909C186.897 97.9909 188.819 97.8769 190.072 96.6719C190.143 96.5971 190.191 96.5032 190.21 96.4018C190.228 96.3003 190.217 96.1955 190.178 96.1002C190.138 96.0049 190.072 95.9232 189.987 95.8649C189.901 95.8066 189.801 95.7743 189.698 95.7719C187.972 95.5769 185.887 96.7649 184.715 97.9719C184.056 98.7229 183.571 99.6099 183.295 100.57C183.018 101.53 182.957 102.539 183.115 103.525C183.427 105.753 184.041 107.928 184.939 109.99C185.362 111.049 185.851 112.107 186.307 113.165C186.665 114.3 187.157 115.388 187.772 116.406C187.824 116.473 187.893 116.524 187.972 116.553C187.776 116.6 187.586 116.666 187.402 116.748C187.332 116.651 187.241 116.571 187.137 116.513C187.033 116.454 186.917 116.419 186.798 116.409C186.679 116.4 186.559 116.416 186.447 116.457C186.335 116.499 186.233 116.564 186.148 116.648C180.648 122.136 176.148 128.584 171.46 134.756C168.985 138.029 166.515 141.307 164.051 144.592C161.472 147.857 159.08 151.266 156.886 154.802C156.847 154.876 156.835 154.961 156.853 155.043C156.871 155.124 156.917 155.197 156.984 155.247C157.05 155.298 157.132 155.324 157.215 155.32C157.299 155.315 157.378 155.282 157.439 155.225C160.215 152.208 162.814 149.033 165.223 145.715C167.682 142.507 170.141 139.283 172.583 136.075C177.306 129.855 181.816 123.375 187.369 117.853C187.458 117.772 187.526 117.672 187.569 117.56C188.66 117.853 189.832 117.935 190.94 118.195C192.014 118.44 193.105 118.667 194.147 119.009C195.157 119.345 196.112 119.827 196.981 120.442C197.133 120.554 197.302 120.642 197.481 120.703C195.881 128.08 194.273 135.408 192.026 142.621C189.725 149.988 186.944 157.197 183.7 164.2C182.2 167.44 180.655 170.681 178.848 173.758C177.305 176.624 175.187 179.14 172.627 181.151C166.327 185.711 157.581 184.18 150.448 182.992C145.856 182.226 141.248 181.412 136.656 180.614C134.556 180.256 132.438 179.898 130.356 179.442C128.174 178.953 126.089 178.123 123.924 177.667C123.142 177.504 122.881 178.041 123.614 178.351C125.699 179.263 127.214 179.8 129.232 180.63C130.672 181.237 132.173 181.685 133.71 181.966C133.11 184.425 132.88 187.014 132.424 189.489C131.952 192.013 131.447 194.537 130.877 197.028C130.307 199.536 129.688 202.028 128.988 204.503C128.646 205.708 128.304 206.913 127.929 208.118C127.482 209.24 127.139 210.401 126.904 211.586C126.838 211.798 126.757 211.993 126.692 212.205C126.61 212.433 126.529 212.645 126.448 212.873C126.041 212.759 125.648 212.645 125.248 212.547C123.451 212.093 121.629 211.745 119.792 211.505C116.213 211.033 112.599 210.869 108.992 211.016C105.29 211.168 101.6 211.516 97.9354 212.059C96.0304 212.335 94.1254 212.629 92.2354 212.987C90.4027 213.259 88.5908 213.656 86.8124 214.176C83.6134 208.307 80.8118 202.23 78.4264 195.986C77.2377 192.86 76.1574 189.701 75.1854 186.509C74.1924 183.268 73.0204 179.914 71.8854 176.722C71.7064 176.234 71.2174 176.283 71.2854 176.885C71.5508 178.987 71.9699 181.066 72.5394 183.106C70.4008 184.318 68.3641 185.701 66.4494 187.242C65.4887 187.991 64.5604 188.789 63.6644 189.635C62.7093 190.382 61.8981 191.297 61.2704 192.335C61.2304 192.408 61.2152 192.492 61.227 192.574C61.2387 192.656 61.2769 192.733 61.3358 192.791C61.3947 192.85 61.471 192.888 61.5533 192.9C61.6357 192.912 61.7196 192.896 61.7924 192.856C62.7327 192.296 63.5971 191.617 64.3644 190.836C65.2934 190.036 66.2534 189.273 67.2304 188.508C69.068 187.099 70.9758 185.783 72.9464 184.567C73.1584 185.3 73.3704 186.033 73.5984 186.767C74.5911 190.073 75.7091 193.346 76.9524 196.587C78.4017 200.381 79.9977 204.11 81.7404 207.774C81.1606 207.728 80.5777 207.74 80.0004 207.81C79.1064 207.803 78.2134 207.87 77.3304 208.01C77.3422 207.941 77.3394 207.871 77.3222 207.804C77.3049 207.736 77.2737 207.673 77.2304 207.619C75.2361 205.389 73.0691 203.32 70.7494 201.431C68.6004 199.493 66.4184 197.588 64.2354 195.683C62.2164 193.924 60.1814 192.198 58.0474 190.57C55.9607 188.825 53.6828 187.323 51.2574 186.092C50.3574 185.701 50.4574 185.929 51.3064 186.482C52.1204 187.036 52.8374 187.72 54.6934 189.055C55.8004 189.837 56.9244 191.074 57.9994 191.905C60.1484 193.55 61.4514 195.39 63.4864 197.165C65.6364 199.037 67.7534 200.943 69.9194 202.815C71.8187 204.59 73.8194 206.254 75.9114 207.798C75.3711 208.603 74.9745 209.495 74.7394 210.436C74.3644 211.527 74.0394 212.636 73.7454 213.742C73.1811 215.686 72.8639 217.694 72.8014 219.718C72.7523 219.682 72.6971 219.654 72.6384 219.637C70.5967 219.01 68.5198 218.504 66.4184 218.122C64.3334 217.634 62.2494 217.129 60.1814 216.575C56.0454 215.452 51.9574 214.182 47.9354 212.716C44.0953 211.389 40.3528 209.795 36.7354 207.945C33.2318 206.25 30.1877 203.737 27.8604 200.617C26.7622 199.148 25.9737 197.471 25.5426 195.688C25.1115 193.905 25.0468 192.053 25.3524 190.244C26.1834 186.368 28.7884 183.112 31.2144 180.083C35.9484 174.166 41.274 168.748 47.1084 163.913C50.4113 161.183 53.8633 158.639 57.4484 156.292C61.0484 153.93 64.8904 151.976 68.5054 149.648C68.9934 149.338 68.6844 148.443 68.0984 148.671C64.4003 150.134 60.8641 151.978 57.5464 154.171C47.3904 160.53 38.3384 168.501 30.7464 177.771C28.2224 180.865 25.5524 184.071 24.1464 187.871C23.5081 189.675 23.2369 191.588 23.3487 193.498C23.4605 195.408 23.953 197.277 24.7974 198.994C28.2504 206.452 36.1474 210.083 43.3614 212.965C48.0192 214.825 52.7722 216.436 57.6004 217.793C60.0757 218.493 62.5671 219.112 65.0744 219.649C67.5059 220.298 70.0018 220.675 72.5164 220.773C72.611 220.775 72.7044 220.751 72.7872 220.706C72.8701 220.66 72.9394 220.593 72.9884 220.512C73.0405 220.553 73.1021 220.581 73.1675 220.592C73.2329 220.604 73.3002 220.599 73.3632 220.578C73.4262 220.557 73.483 220.52 73.5284 220.472C73.5739 220.423 73.6065 220.364 73.6234 220.3C73.8514 219.568 74.0304 218.835 74.2094 218.1C75.0564 218.735 76.0334 219.207 76.8964 219.842C77.3964 220.233 78.6874 221.569 79.2574 220.526C79.7624 219.598 78.1504 218.768 77.5644 218.393C76.6342 217.743 75.5901 217.273 74.4864 217.009C74.7144 216.048 74.9264 215.087 75.2034 214.127C75.4794 213.133 75.7894 212.14 76.1154 211.179C76.3594 210.447 76.7154 209.714 76.9154 208.965L77.0154 209.014C78.0168 209.22 79.0382 209.313 80.0604 209.29C80.8094 209.323 81.8034 209.535 82.4214 209.062C83.3014 210.87 84.2294 212.645 85.1734 214.42C85.099 214.435 85.0277 214.462 84.9624 214.501C82.0819 216.673 79.7228 219.46 78.0574 222.66C76.2374 225.931 74.675 229.339 73.3844 232.853C70.2567 240.743 68.0439 248.966 66.7894 257.361C66.1544 261.904 65.5674 266.761 66.2194 271.333C66.3334 272.163 67.5384 271.886 67.6034 271.154C67.9124 267.115 67.8154 263.093 68.3034 259.054C68.804 254.99 69.5768 250.964 70.6164 247.004C72.4608 239.415 75.1538 232.057 78.6444 225.07C80.5613 221.545 82.89 218.259 85.5814 215.283C85.6011 215.264 85.6174 215.242 85.6294 215.218C85.6469 215.236 85.6585 215.258 85.6624 215.283C85.7285 215.399 85.8227 215.496 85.9363 215.565C86.0498 215.635 86.1791 215.675 86.3121 215.681C86.4451 215.688 86.5776 215.661 86.6974 215.602C86.8172 215.544 86.9203 215.457 86.9974 215.348C88.938 215.201 90.8683 214.94 92.7784 214.566C94.6834 214.29 96.5894 213.98 98.4944 213.703C102.503 213.125 106.544 212.799 110.594 212.726C114.476 212.647 118.356 212.969 122.172 213.687C123.084 213.866 123.979 214.062 124.872 214.287C125.594 214.609 126.382 214.759 127.172 214.726C127.17 214.754 127.175 214.783 127.188 214.808C129.175 221.256 131.536 227.591 133.295 234.121C135.065 240.712 136.425 247.407 137.366 254.166C137.903 257.96 138.131 261.787 138.701 265.581C138.831 266.412 140.134 266.181 140.134 265.386C140.07 261.977 139.769 258.576 139.234 255.208C138.778 251.808 138.24 248.434 137.573 245.063C136.254 238.306 134.514 231.639 132.362 225.099C131.201 221.445 129.764 217.885 128.062 214.449C128.019 214.374 127.958 214.313 127.883 214.27C128.115 213.896 128.291 213.49 128.404 213.065C128.534 212.691 128.68 212.332 128.811 211.958C129.232 210.956 129.57 209.921 129.82 208.864C130.195 207.61 130.569 206.34 130.911 205.07C131.611 202.529 132.23 199.97 132.784 197.4C133.338 194.892 133.794 192.352 134.184 189.812C134.666 187.314 134.955 184.782 135.048 182.24C139.315 182.973 143.576 183.707 147.831 184.44C155.289 185.726 163.968 187.599 171.166 184.24C177.435 181.309 180.757 174.617 183.623 168.705C187.104 161.518 190.107 154.109 192.612 146.527C195.523 138.078 197.643 129.378 198.946 120.537C198.961 120.441 198.947 120.342 198.907 120.253C198.866 120.164 198.801 120.089 198.718 120.037C198.721 119.926 198.701 119.815 198.659 119.711C198.617 119.608 198.554 119.515 198.474 119.437C198.409 119.372 198.344 119.323 198.279 119.258C198.359 119.224 198.429 119.17 198.483 119.102C198.537 119.034 198.573 118.953 198.588 118.867C198.995 116.343 200.607 114.177 202.073 112.142C203.636 109.976 205.395 108.005 206.518 105.563C207.745 102.957 208.447 100.135 208.586 97.2579C208.486 96.1999 208.681 94.5869 207.883 93.7729Z" fill="#1B1A26" stroke="#1B1A26" stroke-width="0.326" stroke-miterlimit="10"/>
<path d="M61.8799 61.3679C55.0249 59.9679 48.2179 58.3879 41.3799 56.9219C39.7679 56.5799 38.1229 56.2549 36.5269 55.8639C35.6479 55.6519 35.5339 54.8869 35.2409 54.1049C34.8989 53.2099 34.5569 52.3139 34.2149 51.4049C32.8629 47.8716 31.5059 44.3382 30.1439 40.8049C28.7109 37.0919 27.3919 33.2819 25.1769 29.9599C25.0835 29.8086 24.9529 29.6836 24.7975 29.597C24.6422 29.5103 24.4673 29.4648 24.2894 29.4648C24.1115 29.4648 23.9366 29.5103 23.7813 29.597C23.6259 29.6836 23.4953 29.8086 23.4019 29.9599C19.2659 37.6949 15.5369 46.0649 13.7459 54.6949C13.6993 54.8789 13.7265 55.0738 13.8216 55.238C13.9167 55.4021 14.0723 55.5226 14.2551 55.5737C14.4379 55.6247 14.6333 55.6023 14.7998 55.5111C14.9662 55.42 15.0905 55.2674 15.1459 55.0859C16.6119 50.9989 17.9629 46.8789 19.5919 42.8569C21.0079 39.3569 22.6039 35.9199 24.3459 32.5649C25.7743 35.2857 26.9938 38.1112 27.9939 41.0169C29.3939 44.6639 30.7939 48.3279 32.1939 51.9759C32.5359 52.8759 32.8779 53.7669 33.2369 54.6759C33.4676 55.4896 33.8304 56.2599 34.3109 56.9559C35.3209 58.1279 37.3889 58.1449 38.8059 58.4379C42.3059 59.1539 45.7919 59.9519 49.2759 60.7379C52.6309 61.4869 56.0019 62.2379 59.3759 62.9519C54.4249 66.9749 49.0679 70.492 44.1339 74.563C43.0589 75.442 41.6579 76.3699 41.2189 77.7549C40.7469 79.2689 41.4299 81.1909 41.6749 82.7049C42.2939 86.4499 42.8309 90.2119 43.2539 93.9899C43.6609 97.4899 43.9709 101.008 44.2149 104.526C38.2147 99.7832 32.4837 94.7093 27.0489 89.3279C26.8495 89.1433 26.5877 89.0407 26.3159 89.0407C26.0441 89.0407 25.7823 89.1433 25.5829 89.3279C18.8089 94.6199 11.8559 99.7329 5.29288 105.27C4.46288 105.97 5.56988 107.452 6.46588 106.8C13.2229 101.915 19.6719 96.5739 26.2339 91.4119C32.0564 97.1305 38.2061 102.506 44.6519 107.512C45.3029 108.017 46.4919 107.772 46.4429 106.779C46.0359 99.6139 45.2709 92.4649 44.1959 85.3659C43.9349 83.5909 43.6419 81.8319 43.3329 80.0729C43.1859 79.2729 42.9579 78.5429 43.5439 77.8729C44.0553 77.3383 44.6109 76.8479 45.2049 76.4069C47.8599 74.2069 50.6279 72.1729 53.3959 70.1219C56.4409 67.8579 59.4699 65.5949 62.3359 63.1219C62.4617 62.9908 62.5519 62.8297 62.5977 62.6538C62.6436 62.478 62.6437 62.2934 62.598 62.1175C62.5522 61.9416 62.4622 61.7804 62.3365 61.6492C62.2109 61.518 62.0536 61.4211 61.8799 61.3679Z" fill="#E0C11E" stroke="#E0C11E" stroke-width="0.326" stroke-miterlimit="10"/>
<path d="M294.71 105.237C288.147 99.7 281.178 94.571 274.42 89.3C274.22 89.1156 273.959 89.0132 273.687 89.0132C273.415 89.0132 273.154 89.1156 272.954 89.3C267.528 94.6883 261.798 99.761 255.791 104.493C256.263 97.703 257.012 90.912 258.091 84.187C258.462 82.4544 258.744 80.7042 258.938 78.943C259.019 77.396 258.058 76.37 256.967 75.443C254.313 73.18 251.512 71.079 248.695 69.027C245.976 67.041 243.256 65.07 240.651 62.937C247.051 61.586 253.434 60.087 259.833 58.72C260.68 58.54 261.527 58.361 262.39 58.198C263.224 58.0939 264.043 57.8974 264.833 57.612C266.333 56.912 266.722 54.828 267.259 53.412C268.643 49.812 270.011 46.231 271.395 42.632C272.57 39.1726 273.996 35.8036 275.662 32.552C277.4 35.9 279 39.336 280.412 42.853C282.041 46.891 283.392 50.995 284.858 55.082C284.913 55.2635 285.038 55.4161 285.204 55.5072C285.371 55.5984 285.566 55.6208 285.749 55.5698C285.932 55.5187 286.087 55.3982 286.182 55.2341C286.277 55.0699 286.305 54.875 286.258 54.691C284.467 46.061 280.738 37.691 276.602 29.956C276.509 29.8047 276.378 29.6797 276.223 29.5931C276.067 29.5064 275.892 29.4609 275.715 29.4609C275.537 29.4609 275.362 29.5064 275.206 29.5931C275.051 29.6797 274.92 29.8047 274.827 29.956C273.008 32.9181 271.528 36.0752 270.414 39.368C269.062 42.902 267.695 46.435 266.343 49.968C265.692 51.678 265.122 53.468 264.356 55.146C263.998 55.928 263.265 55.912 262.5 56.075C261.653 56.254 260.823 56.433 259.976 56.628C256.54 57.394 253.088 58.128 249.652 58.892C245.809 59.738 241.952 60.585 238.09 61.383C237.921 61.4329 237.768 61.5252 237.645 61.6511C237.522 61.7771 237.434 61.9324 237.388 62.1024C237.342 62.2723 237.341 62.4512 237.384 62.6218C237.427 62.7924 237.513 62.9492 237.634 63.077C242.764 67.477 248.414 71.219 253.674 75.469C254.274 75.941 254.86 76.4293 255.433 76.934C255.97 77.39 256.687 77.863 256.784 78.595C256.786 79.4652 256.666 80.3314 256.426 81.168L255.986 83.806C255.416 87.373 254.944 90.939 254.537 94.521C254.081 98.5757 253.739 102.647 253.511 106.734C253.446 107.744 254.651 107.972 255.302 107.467C261.751 102.464 267.901 97.0869 273.72 91.363C280.282 96.525 286.731 101.85 293.489 106.752C294.417 107.4 295.54 105.937 294.71 105.237Z" fill="#1B1A26" stroke="#1B1A26" stroke-width="0.326" stroke-miterlimit="10"/>
<path d="M229.052 61.172C219.952 58.811 210.212 59.3 201.418 55.734C201.419 55.7252 201.418 55.7162 201.416 55.7077C201.413 55.6992 201.408 55.6915 201.402 55.685C198.504 46.875 195.604 38.0597 192.702 29.239C192.621 29.011 192.263 28.914 192.149 29.174C188.957 35.7373 186.004 42.404 183.29 49.174C182.59 50.916 181.922 52.674 181.255 54.434C181.164 54.8645 180.98 55.2702 180.717 55.623C180.347 55.8604 179.931 56.0159 179.496 56.079C178.535 56.372 177.558 56.648 176.596 56.925C173.029 57.935 169.414 58.831 165.783 59.612C161.663 60.492 157.494 61.212 153.326 61.794C153.098 61.827 153.049 62.152 153.195 62.299C159.805 68.5756 166.864 74.361 174.316 79.609C172.622 87.9303 171.097 96.2893 169.74 104.686C169.727 104.749 169.734 104.814 169.76 104.873C169.786 104.931 169.829 104.98 169.884 105.013C169.94 105.045 170.004 105.059 170.067 105.054C170.131 105.048 170.192 105.022 170.24 104.98C176.656 98.417 185.71 95.046 191.621 87.946L192.842 89.363C193.265 87.002 193.705 84.625 194.142 82.263C194.414 80.6888 194.777 79.1319 195.23 77.6C195.334 77.0789 195.546 76.5853 195.851 76.1507C196.157 75.7161 196.55 75.35 197.005 75.076C199.09 74.099 199.985 76.525 200.083 78.137C200.222 80.8995 200.009 83.6684 199.448 86.377C199.809 86.1752 200.214 86.0626 200.627 86.0485C201.041 86.0344 201.452 86.1193 201.826 86.296C202.257 86.5121 202.626 86.8352 202.897 87.2344C203.168 87.6335 203.332 88.0954 203.373 88.576C203.635 88.4498 203.92 88.3776 204.211 88.3635C204.502 88.3494 204.793 88.3938 205.066 88.494C205.567 88.753 205.993 89.1359 206.304 89.6063C206.614 90.0767 206.799 90.6188 206.841 91.181C207.203 91.0067 207.613 90.9585 208.005 91.044C208.398 91.1295 208.75 91.3439 209.007 91.653C210.082 92.907 209.854 95.236 209.87 96.766C209.884 99.5092 209.595 102.246 209.007 104.925L209.398 105.316C209.44 105.354 209.493 105.379 209.549 105.389C209.605 105.398 209.663 105.391 209.715 105.369C209.768 105.347 209.813 105.31 209.845 105.263C209.878 105.216 209.896 105.161 209.898 105.104C210.729 98.541 211.576 91.979 211.918 85.368C211.999 83.7067 212.047 82.0457 212.064 80.385C212.064 79.424 211.918 78.74 212.664 78.056C213.264 77.519 213.852 76.981 214.455 76.428C216.881 74.197 219.242 71.933 221.571 69.605C224.16 67.015 226.684 64.366 229.143 61.658C229.182 61.6256 229.211 61.5836 229.228 61.5362C229.245 61.4889 229.249 61.4379 229.239 61.3885C229.23 61.339 229.208 61.2929 229.175 61.2549C229.142 61.2169 229.1 61.1883 229.052 61.172Z" fill="#E0C11E"/>
<path d="M145.043 57.9811C135.81 56.1901 126.105 57.2971 117.1 54.2681C117.1 54.2521 117.1 54.2521 117.083 54.2351C113.631 45.6211 110.184 37.0014 106.743 28.3761C106.725 28.3126 106.686 28.2567 106.633 28.217C106.58 28.1773 106.516 28.1558 106.45 28.1558C106.384 28.1558 106.32 28.1773 106.267 28.217C106.214 28.2567 106.175 28.3126 106.157 28.3761C103.34 35.2161 100.767 42.1531 98.4866 49.1761C97.9006 50.9671 97.3306 52.7591 96.7926 54.5501C96.6466 55.0221 96.5926 55.3641 96.1576 55.6081C95.7642 55.7942 95.3557 55.9467 94.9366 56.0641C94.0086 56.4061 93.0636 56.7481 92.1366 57.0741C88.6846 58.2951 85.1836 59.3861 81.6496 60.3801C77.6429 61.5001 73.5929 62.4644 69.4996 63.2731C69.4495 63.2875 69.4039 63.3147 69.3675 63.352C69.3311 63.3893 69.305 63.4355 69.2919 63.486C69.2788 63.5365 69.279 63.5895 69.2927 63.6398C69.3063 63.6902 69.3328 63.7361 69.3696 63.7731C76.3607 69.6318 83.7742 74.9672 91.5496 79.7361C91.1096 82.9121 90.6929 86.0874 90.2996 89.2621C93.6992 88.6792 97.1959 89.1568 100.315 90.6301C101.528 91.2178 102.629 92.0112 103.571 92.9751C105.723 91.2007 107.658 89.1783 109.336 86.9501C115.052 92.9921 121.936 97.7141 128.177 103.15C128.219 103.188 128.272 103.213 128.328 103.223C128.384 103.232 128.442 103.225 128.494 103.203C128.547 103.181 128.592 103.144 128.624 103.097C128.657 103.05 128.675 102.995 128.677 102.938C129.1 96.3431 129.54 89.7321 129.458 83.1041C129.442 81.4431 129.393 79.7821 129.295 78.1211C129.246 77.1771 129.035 76.4761 129.735 75.7601C130.305 75.1901 130.859 74.6041 131.412 74.0181C133.692 71.6401 135.907 69.2301 138.089 66.7551C140.515 64.0031 142.86 61.2021 145.156 58.3551C145.287 58.2901 145.271 58.0301 145.043 57.9811Z" fill="#E0C11E"/>
</svg>
