<svg width="300" height="300" viewBox="0 0 300 300" fill="none" xmlns="http://www.w3.org/2000/svg">
<path d="M28.95 125.721C59.576 125.441 90.081 125.794 120.74 125.186C120.91 125.156 121.084 125.163 121.252 125.205C121.419 125.247 121.575 125.324 121.711 125.43C121.847 125.536 121.959 125.67 122.04 125.823C122.121 125.975 122.169 126.143 122.18 126.315C122.192 126.487 122.168 126.66 122.109 126.822C122.05 126.984 121.957 127.132 121.837 127.256C121.718 127.38 121.573 127.477 121.413 127.542C121.253 127.607 121.081 127.637 120.909 127.631C90.595 128.231 59.414 128.922 29.116 128.119C27.37 128.073 27.154 125.738 28.95 125.721ZM97.783 79.3002C102.89 102.045 71.583 114.744 57.335 100.356C50.8 93.7522 49.775 83.0002 53.33 74.6872C58.639 62.2722 72.346 58.7082 84.242 63.8072C90.726 66.5862 96.139 71.9752 97.783 79.3002ZM94.948 76.7402C93.9817 74.2527 92.5016 71.9969 90.6045 70.1201C88.7074 68.2433 86.4358 66.7877 83.938 65.8482C70.584 61.1712 57.654 63.8482 53.789 78.7772C51.748 86.6582 53.946 96.2032 60.868 101.045C76.772 112.17 103.16 96.7222 94.948 76.7402ZM30.071 57.2172C30.071 56.4582 28.838 56.4762 28.771 57.2072C27.108 74.6982 27.931 93.0232 27.993 110.607C28.003 113.243 28.924 113.436 30.574 113.544C56.788 115.27 92.782 114.303 118.944 113.144C119.889 113.102 119.916 111.496 118.944 111.479C89.716 110.932 58.969 112.941 30.209 111.216C30.659 93.5802 30.164 74.9602 30.071 57.2172ZM121.558 111.78C121.658 112.559 123.202 112.664 123.186 111.792C122.844 93.4232 123.002 74.9172 122.527 56.6052C122.461 54.0872 122.418 54.3052 119.686 54.1942C91.686 53.1042 60.452 53.6422 32.564 55.2482C32.3518 55.258 32.1522 55.3517 32.0092 55.5087C31.8661 55.6656 31.7912 55.873 31.801 56.0852C31.8108 56.2974 31.9045 56.4969 32.0615 56.64C32.2184 56.7831 32.4258 56.858 32.638 56.8482C61.888 56.7482 91.452 55.5662 120.668 56.5122C119.6 71.0632 119.743 97.5142 121.558 111.78ZM179.452 69.4812C183.637 69.2122 183.492 66.5072 179.18 66.8082C165.992 67.7292 152.494 67.4782 139.28 67.1392C133.466 66.9902 132.888 69.4052 138.857 69.6312C151.756 70.1212 166.607 70.3052 179.448 69.4812H179.452ZM192.396 115.621C192.625 111.273 192.598 106.916 192.316 102.571C192.255 101.911 191.05 101.82 190.937 102.492C190.372 105.872 191.087 112.022 190.949 115.692C190.915 116.484 192.342 116.415 192.392 115.621H192.396ZM30.626 24.5562C47.337 24.5072 171.845 23.7032 178.432 23.9702C192.92 24.5582 193.778 41.5352 192.041 41.8062C190.189 42.0952 17.598 40.9722 15.777 40.8262C14.511 40.7242 13.915 24.6052 30.626 24.5562ZM176.026 33.7562C176.021 34.2114 176.114 34.6623 176.299 35.0785C176.483 35.4947 176.755 35.8664 177.096 36.1686C177.436 36.4708 177.837 36.6964 178.273 36.8302C178.708 36.964 179.167 37.0029 179.618 36.9442C180.085 36.8727 180.531 36.6992 180.923 36.4361C181.316 36.173 181.645 35.8267 181.889 35.4219C182.132 35.017 182.284 34.5635 182.333 34.0935C182.381 33.6236 182.326 33.1486 182.17 32.7025C182.015 32.2563 181.763 31.8499 181.432 31.512C181.102 31.1742 180.702 30.9132 180.259 30.7475C179.817 30.5819 179.343 30.5157 178.872 30.5537C178.401 30.5917 177.944 30.7328 177.534 30.9672C177.065 31.2632 176.68 31.6748 176.416 32.1625C176.152 32.6502 176.018 33.1976 176.026 33.7522V33.7562ZM165.2 35.8792C165.686 36.4525 166.354 36.8404 167.093 36.9772C167.832 37.1141 168.595 36.9915 169.254 36.6302C169.859 36.2186 170.314 35.6229 170.554 34.9317C170.793 34.2405 170.803 33.4905 170.582 32.7932C170.324 32.1004 169.84 31.5148 169.208 31.1307C168.577 30.7466 167.834 30.5865 167.1 30.6762C166.543 30.7662 166.02 31.0031 165.585 31.3625C165.15 31.7219 164.819 32.1907 164.625 32.7208C164.431 33.2508 164.383 33.8229 164.484 34.378C164.585 34.9332 164.832 35.4514 165.2 35.8792ZM153.276 36.0792C153.809 36.528 154.467 36.8018 155.161 36.8633C155.855 36.9248 156.551 36.7712 157.155 36.4232C159.28 35.2492 159.23 31.7082 156.804 30.8742C156.098 30.6658 155.344 30.6786 154.646 30.911C153.947 31.1435 153.336 31.5843 152.895 32.1742C152.49 32.7655 152.306 33.4806 152.375 34.1941C152.444 34.9076 152.762 35.5739 153.274 36.0762L153.276 36.0792ZM190.916 45.6522C191.194 59.5302 189.963 73.4152 190.702 87.3922C190.745 88.2112 192.124 88.1542 192.111 87.3602C191.888 73.5972 193.339 59.3512 192.353 45.6202C192.292 44.7922 190.9 44.8362 190.914 45.6492L190.916 45.6522ZM180.9 55.5232C165.344 56.2502 150.1 55.2162 134.609 55.2142C133.999 55.2142 133.886 56.3142 134.479 56.5732C139.241 58.6292 173.916 58.3952 180.966 57.8642C181.268 57.843 181.549 57.7061 181.752 57.482C181.955 57.258 182.064 56.9642 182.055 56.662C182.047 56.3599 181.922 56.0726 181.707 55.8604C181.491 55.6482 181.202 55.5274 180.9 55.5232ZM26.768 147.9C37.861 147.958 49.493 148.977 58.328 148.332C59.128 148.273 59.239 146.915 58.398 146.891C47.939 146.591 37.926 145.919 28.03 145.7C21.33 145.551 17.603 142.888 16.919 135.895C15.766 124.089 16.219 109.095 16.153 97.0632C16.077 83.8732 17.312 47.4802 17 43.7912C16.9931 43.5969 16.9156 43.4118 16.7821 43.2704C16.6486 43.1291 16.4682 43.0412 16.2746 43.0231C16.081 43.0051 15.8875 43.0582 15.7302 43.1725C15.5729 43.2868 15.4627 43.4545 15.42 43.6442C14.981 45.8282 14.303 72.4852 14.067 93.1112C13.917 106.179 13.338 124.231 14.708 136.811C15.432 143.483 19.92 147.867 26.768 147.9ZM147.184 145.742C128.202 146.912 106.367 146.142 86.784 146.642C85.943 146.663 85.94 148.103 86.794 148.126C106.186 148.643 127.849 147.768 147.194 147.789C148.358 147.789 148.359 145.673 147.184 145.745V145.742ZM137.408 80.5422C135.166 81.0732 135.461 82.5242 137.724 82.5252C141.308 82.5252 145.179 82.1252 148.892 82.0802C151.267 82.0522 152.282 80.1802 148.414 79.8802C144.732 79.7072 141.043 79.9298 137.408 80.5422ZM198.249 176.07C196.565 171.085 194.004 166.44 190.687 162.355C190.212 161.724 191.009 160.755 191.665 161.301C195.831 165.107 198.728 170.101 199.965 175.607C204.907 174.28 210.107 174.24 215.07 175.489C220.032 176.739 224.593 179.237 228.317 182.747C229.297 157.362 208.029 140.112 186.859 138.547C183.737 145.798 170.011 148.64 167.449 141.126C156.766 143.249 141.372 150.926 135.849 160.098C142.841 160.053 147.701 160.042 151.432 160.728C154.992 161.383 157.389 163.91 157.573 166.935C157.835 172.74 158.534 178.516 159.664 184.216C162.376 177.194 168.779 175.43 174.497 175.299C179.452 175.184 191.46 177.687 198.249 176.069V176.07ZM194.184 125.164C203.467 123.22 212.997 122.748 222.427 123.764C231.64 124.73 237.471 125.952 239.647 136.064C242.894 151.155 239.514 175.429 234.314 189.957C229.839 202.457 221.64 201.277 210.701 202.108C209.861 202.172 209.636 203.621 210.559 203.651C220.967 203.991 229.759 203.578 234.531 195.108C241.889 182.047 244.556 152.859 242.398 137.908C240.984 128.118 236.827 123.408 226.842 122.108C216.605 120.774 203.6 120.484 193.732 123.674C193.544 123.741 193.389 123.879 193.299 124.057C193.209 124.236 193.191 124.442 193.249 124.634C193.308 124.825 193.437 124.987 193.611 125.085C193.785 125.184 193.99 125.213 194.184 125.164ZM241.175 127.799C247.869 130.219 255.112 132.818 259.975 138.28C270.931 150.58 265.075 170.78 262.343 185.149C259.31 201.108 256.416 217.093 253.397 233.049C252.453 238.039 254.342 239.591 255.229 235.13C258.396 219.206 261.371 203.205 264.414 187.254C267.302 172.113 273.231 151.982 263.177 138.354C258.052 131.409 249.645 128.717 241.69 126.478C240.838 126.244 240.3 127.481 241.175 127.799ZM202.475 269.13C202.1 270.684 204.429 271.123 204.815 269.482C208.271 254.804 212.965 237.35 214.637 222.796C215.962 211.262 215.017 203.831 201.973 202.596C191.503 201.596 182.839 205.808 180.933 216.816C178.442 231.204 179.933 254.453 180.447 269.81C180.445 270.003 180.519 270.189 180.654 270.326C180.789 270.464 180.973 270.543 181.166 270.545C181.359 270.547 181.545 270.473 181.682 270.338C181.82 270.203 181.899 270.019 181.901 269.826C182.345 254.465 181.645 238.659 182.564 223.443C183.193 213.02 185.691 205.303 197.751 204.693C211.005 204.024 213.651 209.078 212.49 221.425C211.014 237.087 204.917 259.036 202.478 269.129L202.475 269.13ZM266.739 246.179C268.162 243.444 272.921 238.579 275.687 238.562C277.987 238.551 276.51 243.073 277.24 245.623C283.182 246.145 284.278 246.075 288.262 249.961C288.771 250.461 289.384 250.197 288.948 249.471C288.041 247.907 286.762 246.592 285.225 245.641C287.25 242.594 290.454 240.818 291.413 240.95C293.225 241.199 290.958 247.32 292.123 252.173C292.91 255.452 294.323 259.259 292.96 263.104C291.901 266.094 290.197 268.816 285.045 270.444C280.315 271.944 271.362 270.801 267.328 268.564C273.219 264.99 271.078 256.206 262.046 259.093C249.8 263.007 243.633 263.893 230.746 261.727C229.837 261.575 229.624 262.581 230.57 262.761C240.905 264.954 251.636 264.368 261.67 261.061C266.559 259.518 270.004 262.582 267.662 265.834C265.287 269.134 258.934 270.35 255.081 270.934C243.441 272.704 231.115 271.403 225.749 270.757C215.772 269.557 220.875 244.125 246.862 240.657C254.306 239.663 261.951 241.743 266.131 244.506C264.134 247.863 262.898 251.618 262.513 255.506C262.459 256.261 263.287 256.084 263.455 255.344C264.149 252.159 265.254 249.078 266.742 246.178L266.739 246.179ZM240.665 243.749C239.151 244.549 238.089 246.534 237.565 248.104C236.984 249.796 236.902 251.62 237.33 253.357C237.53 254.167 238.349 254.246 238.348 253.393C238.321 251.782 238.66 250.186 239.339 248.725C239.59 248.188 240.947 246.065 241.487 245.181C242.054 244.26 241.576 243.272 240.668 243.748L240.665 243.749ZM248.387 241.949C246.242 243.108 244.987 245.673 244.23 247.892C243.473 250.252 243.403 252.78 244.03 255.178C244.206 255.95 245.036 255.893 245.086 255.128C245.268 252.328 245.738 248.366 247.769 245.771C248.399 244.96 248.974 244.108 249.49 243.22C250.074 242.22 249.147 241.534 248.39 241.943L248.387 241.949ZM254.944 243.501C253.673 244.679 252.636 246.087 251.887 247.65C250.903 249.676 250.578 251.958 250.955 254.178C251.108 254.967 251.955 255.103 252.045 254.237C252.293 252.074 253.047 250 254.245 248.183C254.92 247.151 255.698 246.19 256.568 245.316C258.8 243.044 257.023 241.665 254.947 243.5L254.944 243.501ZM285.944 258.026C286.336 257.795 286.8 257.717 287.246 257.806C287.693 257.895 288.091 258.145 288.365 258.508C288.986 259.363 289.647 258.881 289.294 257.824C289.136 257.461 288.892 257.141 288.582 256.894C288.272 256.647 287.907 256.48 287.517 256.407C287.128 256.333 286.726 256.357 286.348 256.474C285.97 256.592 285.626 256.801 285.347 257.082C285.256 257.174 285.2 257.294 285.186 257.423C285.173 257.551 285.204 257.681 285.273 257.789C285.343 257.898 285.447 257.98 285.569 258.022C285.691 258.064 285.824 258.063 285.946 258.02L285.944 258.026ZM279.757 259.943C279.857 260.684 281.174 262.193 282.007 262.153C282.987 262.106 284.361 261.08 284.265 260.1C284.169 259.12 279.614 258.851 279.759 259.937L279.757 259.943ZM274.871 257.659C275.219 257.291 275.682 257.053 276.184 256.986C276.686 256.919 277.196 257.027 277.628 257.291C278.443 257.898 279.173 257.142 278.477 256.44C278.168 256.119 277.787 255.875 277.366 255.729C276.945 255.582 276.496 255.537 276.054 255.596C275.612 255.656 275.19 255.818 274.823 256.071C274.456 256.324 274.153 256.66 273.94 257.051C273.508 257.753 274.4 258.111 274.873 257.653L274.871 257.659ZM100.722 182.508C101.057 179.715 101.222 178.342 98.246 178.197C89.69 177.782 83.608 179.942 78.357 184.029C72.617 188.496 68.292 195.65 67.894 203.017C67.862 203.201 67.9045 203.39 68.0119 203.543C68.1194 203.695 68.2831 203.799 68.467 203.831C68.6509 203.863 68.84 203.821 68.9927 203.713C69.1453 203.606 69.249 203.442 69.281 203.258C70.63 196.338 73.808 190.011 79.472 185.614C85.487 180.944 91.915 179.466 99.326 180.009C98.8118 187.422 95.7665 194.434 90.7 199.87C84.691 206.278 79.7 207.704 71.716 209.512C71.5541 209.557 71.4139 209.659 71.321 209.8C71.2282 209.94 71.1889 210.109 71.2104 210.276C71.2319 210.442 71.3127 210.596 71.438 210.708C71.5634 210.82 71.7249 210.883 71.893 210.886C78.836 210.799 87.229 206.075 91.943 201.13C96.7419 195.992 99.8117 189.48 100.722 182.508ZM160.84 269.861C158.501 264.731 152.688 258.151 146.358 259.429C142.408 260.229 138.048 264.453 136.115 267.883C135.1 269.683 135.557 271.755 137.838 272.042C143.124 272.518 148.435 272.656 153.738 272.454C158.897 272.393 166.658 272.093 171.557 270.798C172.473 270.557 172.019 269.308 171.216 269.298C167.772 269.227 164.3 269.613 160.84 269.861ZM114.546 272.024C120.506 272.361 128.633 272.336 134.279 270.944C135.155 270.729 134.764 269.484 133.966 269.484C133.146 269.484 132.327 269.512 131.509 269.541C130.226 266.402 128.662 263.209 125.564 261.515C120.582 258.793 115.321 262.723 111.898 266.185C107.473 270.661 109.981 271.766 114.546 272.024ZM50.506 201.555C50.7055 201.546 50.8936 201.459 51.0306 201.314C51.1676 201.169 51.2428 200.976 51.2404 200.776C51.2379 200.577 51.158 200.386 51.0174 200.244C50.8768 200.102 50.6867 200.02 50.487 200.016C42.434 199.977 34.66 198.691 27.496 194.839C16.983 189.185 10.7 180.7 6.80003 169.689C13.261 168.889 23.664 168.389 32.755 170.979C46.516 174.894 52.166 184.271 54.762 197.441C54.921 198.249 56.303 198.154 56.23 197.299C53.943 170.838 30.19 165.366 7.50003 167.799C4.99303 168.068 4.47603 168.209 5.47203 170.84C7.87203 177.183 11.217 183.547 15.831 188.361C24.25 197.145 38.221 203.128 50.506 201.555ZM294.321 273.742C274.8 273.242 273.878 273.342 254.354 273.362C234.83 273.382 215.292 273.501 195.762 273.527C156.901 273.578 118.04 273.689 79.178 273.862C57.386 273.934 35.146 273.599 13.41 274.389C12.642 274.417 12.627 275.721 13.399 275.745C32.908 276.345 52.474 275.97 71.988 275.929C91.5213 275.888 111.052 275.843 130.579 275.795C169.44 275.684 208.302 275.495 247.163 275.473C269.075 275.46 272.404 276.028 294.308 275.352C295.221 275.324 295.236 273.766 294.321 273.742ZM77.184 270.242C78.951 260.818 81.357 247.536 81.984 238.154C84.223 237.982 84.484 237.741 84.938 235.393C85.3666 233.467 85.6715 231.516 85.851 229.551C86.024 226.751 86.429 225.531 83.23 225.461C70.053 225.173 54.013 225.048 40.99 225.93C40.8101 225.94 40.6411 226.019 40.5191 226.152C40.3971 226.284 40.3319 226.459 40.3372 226.639C40.3426 226.82 40.4181 226.99 40.5478 227.116C40.6774 227.241 40.8508 227.31 41.031 227.309C55.224 228.209 70.355 226.439 84.073 227.65C84.0529 230.522 83.7175 233.383 83.073 236.182C68.981 237.158 55.599 237.019 41.516 236.846C40.5836 233.918 39.8815 230.922 39.416 227.885C39.28 227.085 37.924 227.109 37.945 227.964C38.0591 231.057 38.6341 234.115 39.651 237.038C40.162 238.569 41.284 238.812 42.918 238.801C55.577 238.716 67.625 239.075 80.34 238.263C79.027 250.634 77.01 258.771 75.67 268.21C75.205 271.541 76.816 272.211 77.184 270.247V270.242ZM110.659 206.372C111.402 206.389 111.703 205.19 110.907 205.028C106.121 204.053 100.72 203.716 96.681 206.993C91.637 211.086 93.539 219.485 94.436 225.205C96.124 235.979 101.712 259.255 105.971 270.413C106.324 271.338 107.833 270.737 107.571 269.827C104.188 258 99.2 241.012 96.549 225C95.897 221.073 94.466 214.383 96.238 210.777C98.829 205.509 105.823 206.269 110.659 206.377V206.372ZM42.883 241.551C43.302 247.61 46.306 264.662 48.53 269.924C48.6174 270.091 48.7604 270.222 48.9343 270.295C49.1082 270.368 49.302 270.378 49.4824 270.323C49.6627 270.268 49.8182 270.152 49.9221 269.994C50.0259 269.837 50.0715 269.648 50.051 269.461C47.751 260.13 46.144 253.161 44.291 241.31C44.152 240.418 42.822 240.679 42.883 241.551ZM60.923 183.387C61.0227 183.533 61.1738 183.636 61.3461 183.675C61.5184 183.714 61.6991 183.686 61.852 183.598C62.0049 183.509 62.1186 183.366 62.1703 183.197C62.2221 183.028 62.208 182.846 62.131 182.687C58.3343 175.914 57.0995 168.002 58.652 160.394C59.8416 155.026 62.4511 150.076 66.2078 146.061C69.9645 142.046 74.7306 139.113 80.008 137.57C81.8979 144.364 82.3868 151.471 81.445 158.459C79.602 170.512 74.82 176.913 67.239 185.659C66.677 186.308 67.586 187.309 68.279 186.774C73.173 183 77.633 175.9 80.005 170.219C84.157 160.278 85.149 147.801 81.626 137.491C80.965 135.557 80.764 135.413 78.86 136.01C72.1034 138.152 66.217 142.414 62.074 148.165C58.4232 153.265 56.3654 159.333 56.1605 165.602C55.9557 171.87 57.6129 178.059 60.923 183.387ZM61.216 223.523C61.233 224.41 62.747 224.423 62.779 223.529C62.807 222.746 62.8377 221.963 62.871 221.18C69.881 206.294 76.836 198.173 89.571 187.921C90.171 187.437 89.404 186.3 88.703 186.652C79.079 191.483 67.511 206.795 63.076 216.771C64.096 194.877 65.892 179.136 71.416 157.21C71.616 156.41 70.268 156.034 70.005 156.834C64.82 172.57 62.155 193.8 61.36 210.379C55.398 196.886 43.228 186.089 29.794 180.407C28.947 180.049 28.494 181.364 29.309 181.738C43.873 188.381 54.555 200.318 61.209 214.677C61.148 217.622 61.159 220.565 61.216 223.523Z" fill="#076D2A"/>
<path fill-rule="evenodd" clip-rule="evenodd" d="M170.256 185.371C168.956 187.063 167.873 187.254 167.038 189.666C166.409 191.547 166.492 193.593 167.269 195.418C167.343 195.581 167.35 195.767 167.289 195.935C167.229 196.104 167.105 196.242 166.944 196.321C166.783 196.4 166.598 196.413 166.428 196.358C166.258 196.303 166.115 196.184 166.031 196.026C165.429 194.992 165.049 193.844 164.915 192.655C164.78 191.465 164.895 190.261 165.251 189.119C165.807 187.331 167.559 184.635 169.502 184.229C169.645 184.204 169.793 184.221 169.926 184.279C170.06 184.336 170.173 184.431 170.254 184.553C170.334 184.674 170.377 184.816 170.377 184.962C170.377 185.107 170.335 185.249 170.256 185.371ZM174.737 189.065C174.817 188.967 174.87 188.849 174.889 188.723C174.908 188.598 174.893 188.469 174.847 188.351C174.8 188.234 174.722 188.13 174.622 188.052C174.522 187.974 174.403 187.925 174.277 187.908C172.239 187.834 170.536 190.626 170.229 192.392C170.037 193.477 170.166 194.594 170.601 195.607C171.035 196.62 171.756 197.483 172.674 198.092C172.82 198.208 173.006 198.261 173.191 198.24C173.282 198.229 173.371 198.201 173.452 198.156C173.532 198.111 173.603 198.051 173.661 197.979C173.718 197.906 173.76 197.823 173.786 197.735C173.811 197.646 173.819 197.553 173.808 197.462C173.798 197.37 173.769 197.282 173.724 197.201C173.679 197.12 173.619 197.049 173.547 196.992C172.962 196.443 172.517 195.762 172.248 195.006C171.98 194.249 171.897 193.44 172.005 192.645C172.424 190.246 174.081 189.709 174.737 189.065ZM225.921 182.349C225.766 181.43 224.34 181.535 224.345 182.414C224.384 188.448 222.345 194.725 211.869 196.801C200.179 199.118 188.647 196.327 178.669 190.076C178.526 189.978 178.351 189.94 178.18 189.969C178.009 189.998 177.857 190.093 177.755 190.234C177.654 190.374 177.611 190.548 177.636 190.72C177.661 190.891 177.752 191.046 177.89 191.151C187.376 198.463 200.517 200.988 212.21 198.802C220.945 197.169 227.582 192.238 225.921 182.349ZM181.66 200.194C180.432 200.31 163.169 200.815 161.992 200.227C160.815 199.639 156.135 184.627 155.001 170.102C154.675 165.921 154.021 163.993 148.925 163.242C144.796 162.633 112.271 162.942 109.38 163.242C106.894 163.504 105.006 164.479 105.212 169.453C105.701 181.275 111.942 203.487 115.307 205.29C118.966 207.25 177.177 206.747 181.513 205.876C185.09 205.158 184.437 199.933 181.66 200.194ZM135.3 184.214C134.663 181.468 132.652 179.814 130.253 179.904C127.558 180.004 127.067 183.187 127.606 185.441C128.152 187.726 129.894 189.752 132.406 189.656C134.958 189.558 135.938 186.96 135.3 184.214ZM139.245 248.233C139.031 247.433 137.799 247.748 137.855 248.533C137.991 250.441 139.288 257.033 139.879 260.113C139.999 260.733 141.065 260.407 141.169 259.838C141.416 258.5 139.732 250.038 139.246 248.233H139.245ZM147.911 248.069C147.511 247.441 146.411 247.879 146.686 248.623C147.918 251.991 149.11 254.523 149.867 258.303C150.021 259.076 151.267 258.882 151.238 258.071C150.856 254.538 149.722 251.127 147.912 248.069H147.911ZM165.882 257.957C164.799 254.836 164.225 251.561 164.182 248.257C164.167 248.095 164.094 247.943 163.978 247.83C163.861 247.716 163.708 247.647 163.545 247.636C163.383 247.624 163.222 247.671 163.09 247.767C162.959 247.864 162.866 248.004 162.828 248.162C162.431 251.241 162.723 254.369 163.684 257.321C164.632 260.363 166.758 262.94 166.256 266.181C166.225 266.359 166.258 266.542 166.349 266.698C166.44 266.854 166.584 266.973 166.754 267.033C166.924 267.093 167.111 267.091 167.28 267.026C167.448 266.962 167.589 266.839 167.676 266.681C169.266 263.875 166.852 260.545 165.883 257.957H165.882ZM124.838 248.486C124.756 248.343 124.625 248.235 124.469 248.181C124.313 248.126 124.143 248.13 123.99 248.19C123.837 248.251 123.711 248.365 123.634 248.511C123.558 248.657 123.536 248.826 123.574 248.986C124.147 251.68 126.567 256.849 124.945 259.275C124.874 259.397 124.84 259.538 124.847 259.679C124.854 259.821 124.903 259.957 124.986 260.071C125.07 260.186 125.185 260.273 125.318 260.323C125.45 260.373 125.595 260.383 125.733 260.352C129.059 259.274 126.172 250.515 124.839 248.486H124.838ZM139.374 234.473C137.518 227.181 135.374 214.879 141.44 209.073C131.961 208.932 124.061 208.753 122.103 208.751C118.509 208.751 114.118 209.604 113.019 214.733C111.672 221.02 116.419 235.283 121.056 245.672C124.323 245.933 135.492 246.113 139.538 245.606C139.241 241.903 139.186 238.184 139.375 234.473H139.374ZM144.939 209.119C134.807 215.703 142.106 237.363 145.144 245.999C151.712 246.369 158.296 246.346 164.861 245.93C164.115 242.73 163.984 234.038 165.421 232.209C166.858 230.38 171.176 230.555 177.621 230.641C177.668 223.192 177.313 211.983 181.821 208.455C177.807 209.365 160.111 209.319 144.94 209.119H144.939ZM203.19 175.919C193.578 179.654 188.545 178.373 178.811 177.919C172.118 177.607 162.896 179.37 161.068 187.067C161.039 187.236 161.072 187.409 161.162 187.554C161.252 187.7 161.392 187.807 161.556 187.857C161.72 187.906 161.896 187.893 162.052 187.822C162.207 187.75 162.33 187.624 162.399 187.467C165.445 179.526 174.747 179.358 181.899 180.003C189.051 180.648 197.467 181.233 203.85 177.188C204.002 177.092 204.113 176.943 204.16 176.769C204.207 176.596 204.187 176.411 204.104 176.251C204.021 176.092 203.881 175.969 203.712 175.908C203.543 175.847 203.357 175.852 203.191 175.922L203.19 175.919ZM200.665 140.061C193.19 133.933 191.065 120.444 188.098 114.047C182.207 101.322 169.563 97.3529 156.486 100.291C146.294 102.581 146.434 113.491 161.444 112.234C169.452 111.563 173.267 109.55 173.295 109.534C174.195 113.045 178.114 118.416 178.576 117.423C179.707 114.989 182.095 116.017 182.484 118.256C183.048 121.504 181.275 123.14 179.433 123.068C178.775 123.043 182.048 134.441 182.864 136.568C183.077 137.125 183.789 137.031 184.302 137.047C188.431 137.171 195.519 137.821 200.665 140.066V140.061ZM198.573 96.3609C190.395 89.9509 175.987 82.7899 165.561 82.1809C164.879 82.0962 164.187 82.1857 163.549 82.4409C154.049 85.0609 140.556 91.6859 133.01 97.9629C132.546 98.3489 132.91 99.0179 133.39 99.1629C138.604 100.734 143.596 101.898 148.384 103.902C149.298 104.284 149.684 102.828 148.811 102.453C144.401 100.615 139.833 99.1809 135.164 98.1689C143.646 92.5429 155.053 85.6289 165.004 83.5619C174.721 84.1689 188.636 90.8329 196.424 96.7169C190.734 97.918 185.128 99.488 179.642 101.417C179.478 101.477 179.344 101.597 179.268 101.753C179.191 101.91 179.178 102.09 179.231 102.255C179.284 102.421 179.399 102.56 179.552 102.643C179.705 102.726 179.884 102.746 180.052 102.7C186.497 100.983 191.731 99.1599 198.28 97.8649C198.429 97.817 198.562 97.7302 198.665 97.6135C198.769 97.4968 198.839 97.3545 198.869 97.2013C198.899 97.0482 198.887 96.8898 198.835 96.7427C198.783 96.5956 198.693 96.4651 198.573 96.3649V96.3609ZM132.205 122.921C133.418 125.58 134.051 128.467 134.063 131.389C133.981 132.139 132.909 132.106 132.679 131.479C132.316 130.492 132.179 129.235 131.854 128.166C131.735 130.077 131.78 131.983 131.675 133.889C131.676 134.068 131.609 134.24 131.487 134.371C131.365 134.502 131.198 134.581 131.019 134.592C130.841 134.603 130.665 134.546 130.527 134.432C130.39 134.317 130.301 134.155 130.28 133.977C130.054 132.096 129.954 130.202 129.98 128.308C129.437 129.621 129.019 130.982 128.734 132.374C128.692 132.537 128.589 132.678 128.446 132.766C128.303 132.855 128.131 132.886 127.966 132.851C127.801 132.817 127.656 132.721 127.561 132.582C127.465 132.443 127.426 132.273 127.453 132.107C127.675 130.35 128.533 125.729 129.433 124.09C129.862 123.307 131.388 121.6 132.209 122.921H132.205ZM132.375 100.721C132.43 100.572 132.536 100.448 132.674 100.37C132.812 100.292 132.973 100.266 133.129 100.295C133.285 100.325 133.425 100.408 133.525 100.531C133.625 100.654 133.678 100.809 133.675 100.967C132.675 107.261 132.204 113.627 132.268 120C132.268 120.938 130.875 120.82 130.84 119.917C130.633 114.717 131.162 105.735 132.376 100.727L132.375 100.721ZM158.527 93.3329C158.393 92.7119 157.317 92.5799 157.236 93.2659C157.115 94.2969 157.036 97.6659 157.057 98.6589C157.053 98.8499 157.124 99.0349 157.254 99.1748C157.384 99.3147 157.564 99.3987 157.754 99.4089C157.945 99.4192 158.132 99.3549 158.277 99.2297C158.421 99.1046 158.511 98.9282 158.528 98.7379C158.65 96.9383 158.65 95.1325 158.528 93.3329H158.527ZM173.51 92.3879C169.732 90.3079 163.868 90.0879 159.901 91.2019C159.814 91.2235 159.733 91.2626 159.662 91.3168C159.591 91.371 159.532 91.4392 159.489 91.517C159.445 91.5949 159.418 91.6809 159.409 91.7697C159.4 91.8585 159.409 91.9482 159.436 92.0333C159.463 92.1184 159.507 92.1971 159.565 92.2646C159.623 92.3321 159.695 92.3868 159.775 92.4256C159.856 92.4643 159.943 92.4862 160.033 92.4899C160.122 92.4935 160.211 92.4789 160.294 92.4469C164.638 91.6225 169.131 92.1459 173.169 93.9469C172.946 95.7146 172.921 97.5017 173.095 99.2749C173.101 99.4664 173.182 99.6478 173.321 99.7793C173.461 99.9107 173.647 99.9815 173.838 99.9759C174.029 99.9703 174.211 99.8889 174.342 99.7496C174.474 99.6102 174.545 99.4244 174.539 99.2329C174.467 97.7269 174.478 96.3389 174.513 94.8329C174.545 93.4579 174.731 93.0599 173.513 92.3869L173.51 92.3879ZM170.678 136.893C173.108 135.829 175.26 134.221 176.969 132.193C177.477 131.616 176.564 130.811 175.997 131.293C173.184 133.679 170.24 136.501 166.235 136.072C161.969 135.615 160.735 131.272 159.845 127.741C159.634 126.899 158.322 127.114 158.501 127.983C159.355 132.128 160.94 136.72 165.695 137.508C166.897 137.702 168.126 137.645 169.305 137.34C169.521 138.745 169.273 140.103 169.384 141.297C169.413 141.457 169.499 141.6 169.625 141.702C169.751 141.804 169.91 141.857 170.072 141.852C170.234 141.847 170.389 141.785 170.508 141.675C170.628 141.566 170.705 141.417 170.724 141.256C170.888 139.806 170.873 138.341 170.678 136.894V136.893ZM172.929 126.305C172.883 126.145 172.782 126.007 172.644 125.916C172.505 125.824 172.339 125.784 172.174 125.804C172.009 125.823 171.856 125.901 171.743 126.022C171.63 126.144 171.564 126.302 171.557 126.468C171.809 128.968 169.375 129.555 167.482 130.068C167.313 130.111 167.168 130.219 167.079 130.368C166.989 130.518 166.963 130.697 167.006 130.866C167.049 131.035 167.157 131.18 167.306 131.269C167.456 131.359 167.635 131.385 167.804 131.342C170.185 131.116 173.637 129.931 172.929 126.309V126.305ZM165.358 125.885C164.851 126.029 164.316 126.046 163.8 125.937C164.016 125.185 164.239 124.437 164.415 123.674C164.46 123.509 164.439 123.334 164.357 123.184C164.275 123.035 164.138 122.923 163.975 122.873C163.812 122.823 163.636 122.838 163.484 122.915C163.332 122.992 163.216 123.126 163.16 123.287C162.902 123.987 162.639 124.78 162.444 125.508C162.354 125.7 162.312 125.912 162.322 126.124C162.332 126.336 162.394 126.543 162.503 126.725C162.611 126.908 162.763 127.061 162.945 127.172C163.126 127.282 163.332 127.347 163.544 127.359C164.318 127.507 165.116 127.463 165.869 127.23C165.96 127.199 166.044 127.15 166.115 127.085C166.187 127.021 166.245 126.943 166.286 126.856C166.327 126.769 166.35 126.675 166.354 126.579C166.357 126.482 166.342 126.386 166.308 126.296C166.274 126.206 166.222 126.124 166.156 126.054C166.09 125.985 166.01 125.929 165.922 125.891C165.834 125.852 165.739 125.832 165.643 125.831C165.546 125.83 165.451 125.848 165.362 125.885H165.358ZM159.635 122.799C159.598 122.225 159.359 121.581 158.696 121.535C157.83 121.476 157.609 122.272 157.722 122.966C157.816 123.541 158.249 124.421 158.976 124.335C159.676 124.254 159.669 123.322 159.635 122.799ZM169.117 119.658C169.074 119.505 168.998 119.363 168.893 119.244C168.787 119.124 168.657 119.03 168.51 118.969C168.364 118.907 168.205 118.879 168.046 118.887C167.887 118.895 167.733 118.939 167.593 119.015C167.374 119.238 167.224 119.519 167.161 119.825C167.097 120.131 167.123 120.449 167.234 120.741C167.346 121.033 167.539 121.286 167.791 121.472C168.043 121.657 168.342 121.766 168.654 121.786C169.519 121.593 169.449 120.514 169.117 119.658ZM175.732 116.258C174.51 115.93 173.223 115.927 172 116.25C171.113 114.44 169.253 112.483 167.056 112.841C164.606 113.241 163.991 115.985 164.143 118.083C163.788 118.031 163.427 118.053 163.081 118.147C162.735 118.241 162.412 118.406 162.133 118.63C161.446 117.082 160.366 115.641 158.599 115.354C154.826 114.74 154.129 119.754 154.799 122.48C155.323 124.596 156.948 126.834 159.399 126.53C163.082 126.074 162.366 120.47 162.474 120.33C162.655 120.027 162.932 119.793 163.262 119.666C163.591 119.539 163.953 119.526 164.291 119.63C164.758 122.235 166.826 125.303 169.86 124.584C172.777 123.892 173.18 119.969 172.498 117.576C173.533 117.465 174.576 117.458 175.612 117.555C175.756 117.528 175.887 117.455 175.985 117.347C176.084 117.238 176.144 117.101 176.158 116.955C176.171 116.81 176.136 116.663 176.059 116.539C175.981 116.415 175.866 116.319 175.729 116.267L175.732 116.258ZM169.856 122.979C171.967 121.989 171.278 118.035 170.499 116.588C169.881 115.443 168.358 113.673 166.875 114.38C165.586 114.995 165.23 116.861 165.604 118.686C166.212 121.648 167.493 124.086 169.856 122.979ZM160.973 120.099C160.699 118.378 159.82 116.823 158.105 116.779C155.921 116.723 155.751 120.445 156.079 121.985C156.372 123.358 157.461 125.216 159.115 125.093C161.124 124.943 161.17 121.331 160.974 120.1L160.973 120.099Z" fill="#1B1A26"/>
</svg>
