<svg width="22" height="22" viewBox="0 0 22 22" fill="none" xmlns="http://www.w3.org/2000/svg">
<path d="M12.1579 0C11.7638 0 11.3759 0.0288276 10.9942 0.0796552C10.5959 0.0273103 10.2173 0 9.8421 0C7.95744 0 6.19512 0.596276 4.69719 1.62724C4.69681 1.62762 4.69604 1.628 4.69565 1.62838C3.93607 2.15145 3.24519 2.78717 2.64 3.51355C2.62186 3.52986 2.60835 3.54883 2.59368 3.56817C2.02091 4.26534 1.52842 5.04597 1.13049 5.89031C1.11968 5.90928 1.11081 5.92824 1.10347 5.9491C0.829439 6.53931 0.600561 7.15948 0.424561 7.80583C0.407193 7.84224 0.399474 7.88207 0.394456 7.92379C0.139333 8.90052 0 9.93224 0 11C0 12.6701 0.336175 14.2533 0.934807 15.6727C0.94021 15.6887 0.945614 15.7034 0.953333 15.7182C1.31151 16.558 1.7627 17.339 2.29109 18.0457C2.30537 18.065 2.31695 18.0855 2.3347 18.1018C2.87081 18.8089 3.48565 19.4385 4.1634 19.9756C4.18309 19.9972 4.20702 20.0132 4.23133 20.0299C5.82421 21.2702 7.75789 22 9.8421 22C10.2173 22 10.5959 21.9727 10.9942 21.9203C11.3759 21.9712 11.7638 22 12.1579 22C17.5849 22 22 17.0656 22 11C22 4.93445 17.5849 0 12.1579 0ZM8.074 0.99569C7.95126 1.05866 7.83007 1.1239 7.71003 1.19217C7.63709 1.23352 7.56337 1.2741 7.49158 1.31734C7.38582 1.38145 7.28239 1.44897 7.17895 1.51724H6.43558C6.99986 1.25779 7.58884 1.05297 8.20291 0.925897C8.1593 0.947517 8.11761 0.97331 8.074 0.99569ZM4.19158 17.4483H2.80712C2.4667 16.9757 2.16449 16.4678 1.90204 15.931H3.36407C3.42467 16.0657 3.48719 16.1988 3.55242 16.3301C3.58021 16.3862 3.60954 16.4412 3.63811 16.4966C3.71761 16.6498 3.80021 16.8004 3.88589 16.9487C3.91716 17.0033 3.94765 17.0583 3.97968 17.1122C4.048 17.2264 4.1194 17.3375 4.19158 17.4483ZM1.72449 6.44828H3.20158C3.13365 6.61441 3.06958 6.78245 3.00937 6.95238C2.99277 6.99903 2.97618 7.04531 2.95996 7.09197C2.904 7.25507 2.85228 7.41969 2.80326 7.58621H1.29568C1.41842 7.19514 1.562 6.81583 1.72449 6.44828ZM0.77193 11C0.77193 10.7443 0.785825 10.4925 0.802035 10.2414H2.34088C2.34049 10.2474 2.34049 10.2535 2.34011 10.2596C2.32582 10.5046 2.31579 10.7508 2.31579 11C2.31579 11.1271 2.32042 11.253 2.32428 11.3793H0.786982C0.782737 11.2526 0.77193 11.1278 0.77193 11ZM2.36828 12.1379C2.38295 12.2976 2.40186 12.4562 2.4227 12.614C2.42425 12.6253 2.42502 12.6371 2.42656 12.6489C2.45512 12.8598 2.48986 13.0688 2.52884 13.2759H1.0066C0.931333 12.9034 0.871895 12.5244 0.833684 12.1379H2.36828ZM2.60758 8.34483C2.59754 8.38997 2.58905 8.43548 2.5794 8.48062C2.56898 8.53031 2.55856 8.57962 2.54853 8.62931C2.50144 8.86752 2.45937 9.10762 2.42656 9.35114C2.42502 9.36252 2.42425 9.37428 2.4227 9.38603C2.41846 9.41828 2.41575 9.45052 2.41151 9.48276H0.879614C0.930561 9.09662 0.995017 8.71579 1.0834 8.34483H2.60758ZM2.69982 14.0345C2.71179 14.0811 2.72298 14.1282 2.73572 14.1748C2.73996 14.1911 2.74382 14.2078 2.74846 14.2241C2.81214 14.4555 2.88354 14.6831 2.96035 14.9077C2.97618 14.9543 2.99316 15.0006 3.00975 15.0472C3.02442 15.089 3.0387 15.1307 3.05375 15.172H1.56625C1.41996 14.8037 1.29414 14.4237 1.18684 14.0341H2.69982V14.0345ZM3.97968 4.88741C3.94765 4.94128 3.91716 4.99628 3.88589 5.0509C3.80021 5.19921 3.71761 5.35017 3.63811 5.50303C3.60954 5.55841 3.58021 5.61341 3.55242 5.66955C3.54895 5.67638 3.54547 5.68283 3.54239 5.68966H2.0954C2.38758 5.14838 2.72414 4.642 3.09737 4.17241H4.4494C4.40232 4.23879 4.35484 4.30441 4.3093 4.37193C4.19544 4.53997 4.08505 4.71179 3.97968 4.88741ZM5.1067 2.27586H6.17312C6.07779 2.35779 5.98246 2.44048 5.88944 2.52621C5.81109 2.59903 5.73505 2.67452 5.65863 2.74962C5.58298 2.82434 5.50811 2.89983 5.43477 2.97721C5.36298 3.05269 5.29081 3.12741 5.22095 3.20479C5.15958 3.27307 5.10091 3.34362 5.04109 3.41379H3.76663C4.18116 2.9901 4.62849 2.60814 5.1067 2.27586ZM3.40575 18.2069H4.73039C4.774 18.263 4.81723 18.3196 4.862 18.3746C4.97856 18.5183 5.09821 18.6587 5.22133 18.7952C5.29119 18.873 5.36298 18.9477 5.43516 19.0228C5.50888 19.0998 5.58337 19.1757 5.65902 19.2504C5.69028 19.2815 5.72039 19.3145 5.75203 19.3448H4.59105C4.16726 19.0038 3.77088 18.623 3.40575 18.2069ZM8.20291 21.0741C7.31789 20.8909 6.48151 20.5548 5.70572 20.1034H6.63937C6.68761 20.1399 6.73702 20.1744 6.78565 20.21C6.86786 20.27 6.9493 20.3303 7.03305 20.3876C7.18319 20.4903 7.33604 20.589 7.49119 20.6827C7.56337 20.7263 7.6367 20.7665 7.70965 20.8078C7.82968 20.8761 7.95088 20.9417 8.07361 21.0043C8.11761 21.0267 8.1593 21.0525 8.20291 21.0741ZM12.1579 21.2414C11.8514 21.2414 11.5485 21.2236 11.2493 21.1898L11.0961 21.1689C11.0772 21.1663 11.0583 21.1632 11.0394 21.161C10.9051 21.1424 10.7719 21.1204 10.6395 21.0953C10.6299 21.0934 10.6206 21.0916 10.6109 21.0897C10.4816 21.0646 10.3535 21.0369 10.2265 21.0058C10.2095 21.0017 10.1929 20.9971 10.1764 20.9926C10.0571 20.9626 9.9386 20.9307 9.82126 20.8954C9.78961 20.886 9.75874 20.875 9.72747 20.8651C9.62519 20.8332 9.5233 20.8006 9.42295 20.7646C9.35154 20.7392 9.2813 20.7107 9.21105 20.6834C9.15084 20.6603 9.09025 20.6383 9.03081 20.6136C6.95586 19.7503 5.23523 18.054 4.18849 15.8859C4.17923 15.8662 4.17035 15.8464 4.16109 15.8267C4.10474 15.7084 4.04993 15.5885 3.99782 15.4671C3.97737 15.4197 3.95846 15.3716 3.93877 15.3238C3.8994 15.2289 3.86081 15.1337 3.82375 15.0374C3.8006 14.9763 3.7786 14.9145 3.75621 14.8527C3.72572 14.7681 3.69561 14.6831 3.66667 14.597C3.64351 14.5276 3.62151 14.4578 3.59989 14.3876C3.57481 14.3072 3.55049 14.2264 3.52695 14.1449C3.50572 14.0709 3.48565 13.9966 3.46596 13.9222C3.44474 13.8426 3.42467 13.7621 3.40537 13.6813C3.38684 13.6051 3.36909 13.5285 3.35249 13.4511C3.33474 13.3703 3.31853 13.2888 3.3027 13.2072C3.28765 13.1298 3.2726 13.0521 3.25909 12.9743C3.24442 12.8901 3.23168 12.8051 3.21895 12.7198C3.20737 12.6436 3.19579 12.5677 3.18575 12.4907C3.17379 12.3997 3.16453 12.3075 3.15488 12.2157C3.14716 12.144 3.13867 12.0727 3.13249 12.0006C3.12323 11.8952 3.11705 11.789 3.11088 11.6824C3.1074 11.6224 3.10239 11.5633 3.09968 11.5033C3.09196 11.3372 3.08772 11.1692 3.08772 11C3.08772 10.8308 3.09196 10.6628 3.09891 10.4955C3.10161 10.4356 3.10663 10.376 3.11011 10.3165C3.11628 10.2103 3.12246 10.1037 3.13172 9.99824C3.13789 9.92617 3.14639 9.85486 3.15411 9.78317C3.16375 9.69138 3.1734 9.59921 3.18498 9.50817C3.19502 9.43155 3.20698 9.35531 3.21818 9.27907C3.23091 9.1941 3.24404 9.10914 3.25832 9.02455C3.27182 8.94641 3.28688 8.86903 3.30193 8.79165C3.31775 8.7101 3.33435 8.62855 3.35172 8.54776C3.3687 8.47076 3.38646 8.39414 3.4046 8.31752C3.42389 8.23672 3.44435 8.15669 3.46519 8.07665C3.48488 8.00193 3.50495 7.92797 3.52618 7.854C3.54933 7.77245 3.57403 7.69166 3.59912 7.61124C3.62189 7.54221 3.64351 7.47203 3.66667 7.403C3.69523 7.31728 3.72533 7.23231 3.75621 7.14734C3.7786 7.08552 3.80021 7.02369 3.82375 6.96262C3.86042 6.86628 3.8994 6.77107 3.93877 6.67624C3.95846 6.62845 3.97737 6.58028 3.99782 6.53286C4.04993 6.41148 4.10474 6.292 4.16109 6.17328C4.17035 6.15355 4.17884 6.13345 4.18849 6.1141C5.23523 3.94559 6.95625 2.24931 9.03081 1.38638C9.09025 1.36172 9.15084 1.3401 9.21105 1.31659C9.28168 1.28928 9.35193 1.26083 9.42295 1.23541C9.52368 1.19976 9.62558 1.16676 9.72747 1.1349C9.75874 1.12503 9.79 1.11403 9.82126 1.10455C9.9386 1.06928 10.0571 1.03741 10.1764 1.00745C10.1933 1.00328 10.2099 0.998345 10.2265 0.994172C10.3535 0.963069 10.4816 0.935379 10.6109 0.910345C10.6206 0.908448 10.6299 0.906552 10.6395 0.904655C10.7719 0.879621 10.9051 0.857621 11.0394 0.839034C11.0583 0.836379 11.0772 0.833345 11.0961 0.831069L11.2493 0.810207C11.5485 0.776448 11.8514 0.758621 12.1579 0.758621C17.1592 0.758621 21.2281 5.35283 21.2281 11C21.2281 16.6472 17.1592 21.2414 12.1579 21.2414Z" fill="black"/>
<path d="M12.1581 3.21516C12.392 3.21516 12.6286 3.22882 12.8598 3.25499C12.8753 3.25689 12.8903 3.25765 12.905 3.25765C13.0983 3.25765 13.2651 3.11541 13.2878 2.92234C13.3125 2.71447 13.1609 2.52596 12.9494 2.50168C12.6896 2.47172 12.4252 2.45654 12.1512 2.45654C12.1496 2.45654 12.1481 2.45654 12.1465 2.45654L12.1415 2.83585V2.45654C11.9281 2.45654 11.7637 2.62609 11.7637 2.83585C11.7641 3.04561 11.9447 3.21516 12.1581 3.21516Z" fill="black"/>
<path d="M9.19702 3.92096C9.25568 3.92096 9.31589 3.90769 9.37186 3.87962C9.58723 3.7719 9.80916 3.67555 10.0315 3.594C10.231 3.52079 10.3321 3.30193 10.2576 3.10583C10.1832 2.90934 9.96161 2.80959 9.76091 2.88355C9.51158 2.97534 9.26263 3.08307 9.0214 3.20407C8.83151 3.2989 8.75586 3.52762 8.85274 3.71424C8.92105 3.84548 9.05653 3.92096 9.19702 3.92096Z" fill="black"/>
<path d="M18.7716 8.83501C18.8152 9.00722 18.9727 9.12215 19.1456 9.12215C19.1768 9.12215 19.2081 9.11836 19.2397 9.11077C19.4466 9.05957 19.5721 8.8536 19.5203 8.65067C19.4559 8.39843 19.3799 8.14543 19.2938 7.89888C19.2243 7.70088 19.0051 7.59505 18.8032 7.66332C18.6017 7.73122 18.4941 7.94705 18.5632 8.14543C18.6423 8.3715 18.7121 8.60363 18.7716 8.83501Z" fill="black"/>
<path d="M18.2293 5.79494C18.0799 5.57835 17.9186 5.36631 17.7499 5.16452C17.6141 5.00294 17.3717 4.9798 17.2065 5.11256C17.0421 5.24569 17.0185 5.48466 17.1536 5.64662C17.3072 5.83021 17.4543 6.02328 17.5901 6.22052C17.6646 6.329 17.7866 6.38704 17.9101 6.38704C17.9846 6.38704 18.0599 6.3658 18.1263 6.3218C18.3026 6.20383 18.349 5.96828 18.2293 5.79494Z" fill="black"/>
<path d="M12.1579 18.785C11.9182 18.785 11.6766 18.771 11.4412 18.7433C11.2247 18.722 11.0371 18.8673 11.012 19.0752C10.9869 19.283 11.1378 19.4719 11.3493 19.497C11.6157 19.5281 11.8881 19.544 12.1583 19.544H12.1907C12.4042 19.544 12.5605 19.3741 12.5605 19.1647C12.5605 18.9553 12.3714 18.785 12.1579 18.785Z" fill="black"/>
<path d="M17.1836 16.3178C17.0304 16.5029 16.8671 16.6819 16.6977 16.8503C16.5479 16.9994 16.5495 17.2395 16.7015 17.3867C16.7764 17.4595 16.8745 17.4963 16.9725 17.4963C17.0721 17.4963 17.1717 17.4588 17.2473 17.3836C17.4333 17.1982 17.6132 17.0009 17.7823 16.7972C17.917 16.6345 17.8919 16.3955 17.7263 16.2635C17.5607 16.1315 17.3183 16.1558 17.1836 16.3178Z" fill="black"/>
<path d="M14.957 18.1135C14.7428 18.2216 14.5213 18.3183 14.2986 18.4006C14.099 18.4742 13.9983 18.6931 14.0735 18.8892C14.1314 19.0413 14.2785 19.135 14.4348 19.135C14.48 19.135 14.5259 19.127 14.571 19.1103C14.8211 19.0178 15.0701 18.9093 15.3102 18.7883C15.4997 18.6927 15.5746 18.464 15.4773 18.2777C15.38 18.0915 15.1473 18.0172 14.957 18.1135Z" fill="black"/>
<path d="M15.9624 3.58443C15.7366 3.43953 15.5015 3.30639 15.263 3.18843C15.0723 3.09398 14.8404 3.16946 14.7446 3.35646C14.6485 3.54346 14.725 3.77181 14.9152 3.86588C15.1283 3.97133 15.3386 4.09043 15.5405 4.21977C15.6053 4.2615 15.6783 4.2816 15.7509 4.2816C15.8767 4.2816 16.0002 4.22091 16.0747 4.10939C16.1916 3.93415 16.1411 3.69898 15.9624 3.58443Z" fill="black"/>
<path d="M19.4266 10.6084C19.2132 10.6084 19.0407 10.7901 19.0407 10.9998C19.0407 11.2343 19.0318 11.4687 19.0136 11.6974C18.997 11.9064 19.1561 12.0888 19.3687 12.1048C19.3788 12.1055 19.3892 12.1059 19.3988 12.1059C19.5988 12.1059 19.7674 11.9549 19.7833 11.7558C19.8029 11.5077 19.8126 11.2532 19.8126 10.9995V10.9752C19.8126 10.7662 19.6401 10.6084 19.4266 10.6084Z" fill="black"/>
<path d="M5.2751 11C5.2751 10.7637 5.28475 10.5236 5.30366 10.2869C5.32026 10.0779 5.16163 9.89547 4.94896 9.87878C4.739 9.86512 4.55065 10.0184 4.53405 10.227C4.51359 10.4834 4.50317 10.7436 4.50317 10.9996V11.0076C4.50317 11.217 4.6757 11.3827 4.88914 11.3827C5.10258 11.3827 5.2751 11.2094 5.2751 11Z" fill="black"/>
<path d="M19.0671 13.573C18.8656 13.5066 18.6464 13.6128 18.5781 13.8112C18.5001 14.038 18.4113 14.2637 18.3145 14.4826C18.2292 14.6745 18.3191 14.8983 18.5144 14.9817C18.5646 15.0034 18.6171 15.0132 18.668 15.0132C18.8174 15.0132 18.959 14.9279 19.0223 14.7853C19.1277 14.5467 19.2242 14.3005 19.3091 14.0532C19.3778 13.8552 19.2693 13.6401 19.0671 13.573Z" fill="black"/>
<path d="M5.80868 7.00392C5.61184 6.9182 5.38566 7.00696 5.30036 7.19889C5.19461 7.43634 5.09735 7.68251 5.01166 7.93058C4.94335 8.12896 5.0518 8.34441 5.25328 8.41192C5.29419 8.42558 5.33626 8.43203 5.37717 8.43203C5.53812 8.43203 5.68826 8.33227 5.74268 8.17448C5.82103 7.94689 5.91019 7.7212 6.00745 7.50386C6.09275 7.31192 6.00398 7.08813 5.80868 7.00392Z" fill="black"/>
<path d="M6.71648 15.7669C6.59683 15.5932 6.35753 15.5477 6.18037 15.6649C6.00398 15.7825 5.95767 16.018 6.07693 16.1917C6.22823 16.4114 6.38879 16.6238 6.55476 16.8229C6.63118 16.9143 6.74156 16.9617 6.85349 16.9617C6.93956 16.9617 7.02602 16.9337 7.09781 16.8756C7.263 16.7425 7.28655 16.5039 7.15184 16.3416C7.00132 16.1606 6.85465 15.9672 6.71648 15.7669Z" fill="black"/>
<path d="M5.54065 13.1497C5.48893 12.9464 5.27858 12.8224 5.07286 12.8732C4.86599 12.9237 4.74016 13.1296 4.7915 13.3329C4.85557 13.5856 4.9316 13.8386 5.01729 14.0851C5.07209 14.2429 5.22185 14.3419 5.38241 14.3419C5.42371 14.3419 5.46578 14.3351 5.50707 14.3214C5.70855 14.2535 5.81662 14.0381 5.74753 13.8397C5.66879 13.614 5.59971 13.3819 5.54065 13.1497Z" fill="black"/>
<path d="M7.08094 4.60486C6.8949 4.7892 6.71427 4.98644 6.54445 5.19051C6.40936 5.35286 6.43406 5.59182 6.59925 5.7242C6.67104 5.78186 6.7575 5.80993 6.84318 5.80993C6.95511 5.80993 7.06627 5.76251 7.1423 5.67072C7.2963 5.48524 7.45995 5.30658 7.62901 5.13931C7.77915 4.99062 7.77837 4.75051 7.62669 4.60296C7.47539 4.45541 7.23108 4.45579 7.08094 4.60486Z" fill="black"/>
<path d="M9.38586 18.1277C9.17281 18.0215 8.96246 17.9017 8.76137 17.7719C8.58305 17.657 8.34414 17.7067 8.22681 17.8816C8.11024 18.0568 8.16003 18.292 8.33835 18.4065C8.56337 18.5514 8.79803 18.6849 9.03695 18.804C9.09291 18.8321 9.15235 18.845 9.21102 18.845C9.35189 18.845 9.48775 18.7691 9.55568 18.6375C9.65217 18.4509 9.57653 18.2226 9.38586 18.1277Z" fill="black"/>
<path d="M14.4335 10.9261C14.0437 10.7364 13.6052 10.5787 13.1309 10.4573C12.8569 10.3867 12.6604 10.3363 12.5419 10.3052V6.91566C12.7171 6.94979 12.8839 7.00024 13.0402 7.06586C13.6786 7.32266 14.0534 7.68983 14.4833 8.15714V8.94686C14.4833 9.17445 14.6327 9.32124 14.8643 9.32124C15.0958 9.32124 15.2456 9.17445 15.2456 8.94686V6.6069C15.2456 6.37931 15.0958 6.23252 14.8646 6.23252C14.6335 6.23252 14.4837 6.37969 14.4837 6.6069V7.10569C14.3953 7.03779 14.4548 6.95966 14.3285 6.87128C13.8426 6.52914 13.2424 6.29131 12.5419 6.16348V5.62145C12.5419 5.39386 12.3925 5.24707 12.161 5.24707C11.9294 5.24707 11.78 5.39424 11.78 5.62145V6.11038C10.7916 6.12669 10.0501 6.34973 9.575 6.77417C9.07595 7.22062 8.82275 7.82297 8.82275 8.5649C8.82275 8.95824 8.93893 9.31138 9.16781 9.61407C9.39012 9.90842 9.70854 10.1576 10.1146 10.3545C10.4816 10.5331 11.0413 10.7254 11.7804 10.9269V14.5546C11.5797 14.5208 11.3944 14.4727 11.2277 14.4104C10.5442 14.154 10.2396 13.9951 9.83244 13.5604V12.7096C9.83244 12.482 9.68268 12.3352 9.45149 12.3352C9.2203 12.3352 9.07016 12.482 9.07016 12.7096V15.0496C9.07016 15.2772 9.21953 15.424 9.4511 15.424C9.68268 15.424 9.83205 15.2768 9.83205 15.0496V14.5504C10.4986 15.0758 10.9884 15.204 11.78 15.3109V15.8439C11.78 16.0714 11.9298 16.2182 12.161 16.2182C12.3922 16.2182 12.5419 16.0711 12.5419 15.8439V15.3557C13.54 15.3439 14.3216 15.1095 14.8666 14.6589C15.4363 14.1886 15.725 13.5468 15.725 12.7529C15.725 12.3352 15.6088 11.9703 15.3799 11.6669C15.1576 11.3722 14.8392 11.1233 14.4335 10.9261ZM11.78 10.0962C11.6472 10.0575 11.5014 10.0158 11.3431 9.97138C11.0899 9.90007 10.8163 9.79993 10.5299 9.67286C10.2612 9.55414 10.0312 9.38459 9.84633 9.16914C9.67033 8.96469 9.58503 8.73104 9.58503 8.45414C9.58503 8.00693 9.76374 7.63938 10.1316 7.32948C10.4851 7.0321 11.0394 6.87431 11.7804 6.85914V10.0962H11.78ZM14.6184 14.3683C14.6118 14.3737 14.6037 14.3774 14.5972 14.3824C14.6531 14.3376 14.7072 14.2913 14.757 14.2432C14.7137 14.2864 14.6674 14.3278 14.6184 14.3683ZM14.3401 14.1009C13.9279 14.4256 13.3231 14.5959 12.5423 14.6069V11.1306L13.1498 11.2971C13.4393 11.3763 13.7315 11.4807 14.0182 11.6073C14.2869 11.7261 14.5169 11.896 14.7018 12.1107C14.8778 12.3159 14.9635 12.5496 14.9635 12.8261C14.9635 13.3533 14.7593 13.7706 14.3401 14.1009Z" fill="black"/>
</svg>
