<svg width="18" height="20" viewBox="0 0 18 20" fill="none" xmlns="http://www.w3.org/2000/svg">
<path d="M12.6667 3.33332H14.5C14.9862 3.33332 15.4525 3.50892 15.7964 3.82148C16.1402 4.13404 16.3333 4.55796 16.3333 4.99999V16.6667C16.3333 17.1087 16.1402 17.5326 15.7964 17.8452C15.4525 18.1577 14.9862 18.3333 14.5 18.3333H3.5C3.01377 18.3333 2.54746 18.1577 2.20364 17.8452C1.85983 17.5326 1.66667 17.1087 1.66667 16.6667V4.99999C1.66667 4.55796 1.85983 4.13404 2.20364 3.82148C2.54746 3.50892 3.01377 3.33332 3.5 3.33332H5.33334M6.25001 1.66666H11.75C12.2563 1.66666 12.6667 2.03975 12.6667 2.49999V4.16666C12.6667 4.62689 12.2563 4.99999 11.75 4.99999H6.25001C5.74374 4.99999 5.33334 4.62689 5.33334 4.16666V2.49999C5.33334 2.03975 5.74374 1.66666 6.25001 1.66666Z" stroke="#292424" stroke-width="2" stroke-linecap="round" stroke-linejoin="round"/>
</svg>
