<svg width="33" height="32" viewBox="0 0 33 32" fill="none" xmlns="http://www.w3.org/2000/svg">
<path d="M23.0778 22.625C23.0778 23.1773 23.5255 23.625 24.0778 23.625C24.6301 23.625 25.0778 23.1773 25.0778 22.625H23.0778ZM20.375 17.25V16.25V17.25ZM8.26667 22.625C8.26667 23.1773 8.71438 23.625 9.26667 23.625C9.81895 23.625 10.2667 23.1773 10.2667 22.625H8.26667ZM31 16C31 23.7013 24.5393 30 16.5 30V32C25.5815 32 33 24.8672 33 16H31ZM16.5 30C8.46071 30 2 23.7013 2 16H0C0 24.8672 7.41846 32 16.5 32V30ZM2 16C2 8.29867 8.46071 2 16.5 2V0C7.41846 0 0 7.13279 0 16H2ZM16.5 2C24.5393 2 31 8.29867 31 16H33C33 7.13279 25.5815 0 16.5 0V2ZM25.0778 22.625V20.8333H23.0778V22.625H25.0778ZM25.0778 20.8333C25.0778 19.607 24.5741 18.4378 23.6887 17.5809L22.2978 19.0181C22.8013 19.5053 23.0778 20.159 23.0778 20.8333H25.0778ZM23.6887 17.5809C22.8044 16.7252 21.6119 16.25 20.375 16.25L20.375 18.25C21.1022 18.25 21.7933 18.5299 22.2978 19.0181L23.6887 17.5809ZM20.375 16.25H12.9694V18.25H20.375V16.25ZM12.9694 16.25C11.7326 16.25 10.54 16.7252 9.65576 17.5809L11.0466 19.0181C11.5511 18.5299 12.2422 18.25 12.9694 18.25V16.25ZM9.65576 17.5809C8.77038 18.4378 8.26667 19.607 8.26667 20.8333H10.2667C10.2667 20.159 10.5432 19.5053 11.0466 19.0181L9.65576 17.5809ZM8.26667 20.8333V22.625H10.2667V20.8333H8.26667ZM19.375 10.0833C19.375 11.4794 18.1961 12.6667 16.6722 12.6667V14.6667C19.2383 14.6667 21.375 12.6453 21.375 10.0833H19.375ZM16.6722 12.6667C15.1484 12.6667 13.9694 11.4794 13.9694 10.0833H11.9694C11.9694 12.6453 14.1061 14.6667 16.6722 14.6667V12.6667ZM13.9694 10.0833C13.9694 8.68725 15.1484 7.5 16.6722 7.5V5.5C14.1061 5.5 11.9694 7.52137 11.9694 10.0833H13.9694ZM16.6722 7.5C18.1961 7.5 19.375 8.68725 19.375 10.0833H21.375C21.375 7.52137 19.2383 5.5 16.6722 5.5V7.5Z" fill="black"/>
</svg>
