<svg width="27" height="22" viewBox="0 0 27 22" fill="none" xmlns="http://www.w3.org/2000/svg">
<path d="M26 11H18.5L16 14.75H11L8.5 11H1M26 11V18.5C26 19.163 25.7366 19.7989 25.2678 20.2678C24.7989 20.7366 24.163 21 23.5 21H3.5C2.83696 21 2.20107 20.7366 1.73223 20.2678C1.26339 19.7989 1 19.163 1 18.5V11M26 11L21.6875 2.3875C21.4805 1.97098 21.1615 1.62046 20.7662 1.37535C20.3709 1.13024 19.9151 1.00025 19.45 1H7.55C7.08489 1.00025 6.62908 1.13024 6.23381 1.37535C5.83853 1.62046 5.51947 1.97098 5.3125 2.3875L1 11" stroke="#292424" stroke-width="2" stroke-linecap="round" stroke-linejoin="round"/>
</svg>
